<?xml version="1.0" encoding="UTF-8" standalone="no"?>
<svg
   width="113"
   height="41"
   viewBox="0 0 113 41"
   fill="none"
   version="1.1"
   id="svg14"
   sodipodi:docname="kagi_news_compact_dark.svg"
   inkscape:version="1.4.2 (ebf0e940, 2025-05-08)"
   xmlns:inkscape="http://www.inkscape.org/namespaces/inkscape"
   xmlns:sodipodi="http://sodipodi.sourceforge.net/DTD/sodipodi-0.dtd"
   xmlns="http://www.w3.org/2000/svg"
   xmlns:svg="http://www.w3.org/2000/svg">
  <defs
     id="defs14" />
  <sodipodi:namedview
     id="namedview14"
     pagecolor="#ffffff"
     bordercolor="#000000"
     borderopacity="0.25"
     inkscape:showpageshadow="2"
     inkscape:pageopacity="0.0"
     inkscape:pagecheckerboard="0"
     inkscape:deskcolor="#d1d1d1"
     inkscape:zoom="2.8284272"
     inkscape:cx="-74.422988"
     inkscape:cy="21.38998"
     inkscape:window-width="1920"
     inkscape:window-height="958"
     inkscape:window-x="0"
     inkscape:window-y="31"
     inkscape:window-maximized="0"
     inkscape:current-layer="svg14" />
  <path
     d="M59.6493 32.3339H52.3125C50.3273 32.3339 49.982 30.1972 50.3273 29.3425C50.4999 28.9152 50.9315 28.3169 51.2767 27.8895C52.6578 28.6587 54.2978 29.0861 56.024 29.0861C61.5482 29.0861 65.9502 24.6417 65.9502 19.2571C65.9502 16.3512 64.6555 13.7871 62.6703 11.9068L62.9292 11.6504C63.4471 11.1376 64.224 10.7957 65.0008 10.8811L66.2092 10.9666V6.26581H64.1376C61.7208 6.26581 59.7356 7.71879 58.8724 9.77005C58.0093 9.51364 57.0598 9.3427 56.1104 9.3427C50.5862 9.3427 46.1842 13.7871 46.1842 19.1717C46.1842 21.3084 46.8747 23.3597 48.0831 24.9836C47.9105 25.1545 47.6515 25.3254 47.4789 25.4109C47.3926 25.4964 47.3063 25.5819 47.2199 25.6673C45.2347 27.5476 44.2852 29.9408 44.8031 32.6758C45.0621 34.1288 46.3568 35.6672 47.6515 36.5219C48.5147 37.1202 49.6368 37.3766 50.7589 37.3766L59.0451 37.0347C59.9945 37.0347 60.8577 37.4621 61.3756 38.3168L62.4113 40.2826L67.5039 38.5732L66.6408 36.6929C65.346 34.0433 62.6703 32.3339 59.6493 32.3339ZM56.1104 14.5563C58.6998 14.5563 60.8577 16.6931 60.8577 19.2571C60.8577 21.8212 58.6998 23.9579 56.1104 23.9579C53.5209 23.9579 51.3631 21.8212 51.3631 19.2571C51.3631 16.6076 53.4346 14.5563 56.1104 14.5563Z"
     fill="#18181A"
     id="path1"
     style="fill:#f2f2f2;fill-opacity:1" />
  <path
     d="M30.729 9.25629C25.5501 9.5127 21.2344 13.6152 20.8891 18.7434C20.4576 24.8117 25.2912 29.8544 31.2469 29.8544C33.2321 29.8544 35.0447 28.7433 36.5984 27.8031V29.598H41.691V19.1707C41.432 13.4443 36.5984 8.99988 30.729 9.25629ZM31.2469 25.0681C28.1396 25.0681 25.7228 22.5895 25.7228 19.5981C25.7228 16.5212 28.2259 14.128 31.2469 14.128C34.3542 14.128 36.771 16.6066 36.771 19.5981C36.8574 22.5895 34.3542 25.0681 31.2469 25.0681Z"
     fill="#18181A"
     id="path2"
     style="fill:#f2f2f2;fill-opacity:1" />
  <path
     d="M20.9759 9.59915H13.8118L7.59712 15.7529L5.43925 17.8897V6.09491H0.34668V29.5989H5.43925V20.7956L7.59712 22.9323V22.8469L14.3297 29.5989H21.4938L10.5318 19.3426L20.9759 9.59915Z"
     fill="#18181A"
     id="path3"
     style="fill:#f2f2f2;fill-opacity:1" />
  <path
     d="M70.8652 27.8043V29.5136H75.9578V9.5993H70.8652V27.8043Z"
     fill="#18181A"
     id="path4"
     style="fill:#f2f2f2;fill-opacity:1" />
  <path
     d="M73.3727 6.77826C75.1842 6.77826 76.6527 5.32415 76.6527 3.53042C76.6527 1.7367 75.1842 0.282593 73.3727 0.282593C71.5613 0.282593 70.0928 1.7367 70.0928 3.53042C70.0928 5.32415 71.5613 6.77826 73.3727 6.77826Z"
     fill="#18181A"
     id="path5"
     style="fill:#f2f2f2;fill-opacity:1" />
  <path
     d="M100.797 28.7742H93.729C89.015 28.7742 86.6579 28.7742 85.1935 27.3098C83.729 25.8453 83.729 23.4883 83.729 18.7742V8.14569L84.1938 8.56963C84.8838 9.19911 85.7384 9.61981 86.6581 9.78281V9.78281C86.9424 9.8332 87.2305 9.85853 87.5192 9.85853H93.4423H97.5777H99.7145C104.221 9.85853 106.474 9.85853 107.916 11.2064C107.998 11.2828 108.077 11.3619 108.153 11.4435C109.501 12.885 109.501 15.1384 109.501 19.645V19.645"
     stroke="#18181A"
     stroke-width="2"
     id="path6"
     style="stroke:#f2f2f2;stroke-opacity:1" />
  <path
     d="M87.4422 14.9478H98.9824"
     stroke="#18181A"
     stroke-width="2"
     stroke-linecap="round"
     stroke-linejoin="round"
     id="path7"
     style="stroke:#f2f2f2;stroke-opacity:1" />
  <path
     d="M87.4423 19.0002H93.9904"
     stroke="#18181A"
     stroke-width="2"
     stroke-linecap="round"
     stroke-linejoin="round"
     id="path8"
     style="stroke:#f2f2f2;stroke-opacity:1" />
  <path
     d="M87.4423 23.0527H93.9904"
     stroke="#18181A"
     stroke-width="2"
     stroke-linecap="round"
     stroke-linejoin="round"
     id="path9"
     style="stroke:#f2f2f2;stroke-opacity:1" />
  <path
     d="M83.729 6.34585C83.729 4.40586 85.3017 2.83319 87.2417 2.83319H94.1836C95.3247 2.83319 95.8953 2.83319 96.3656 2.94878C97.8113 3.30407 98.9401 4.43285 99.2954 5.87856C99.411 6.34888 99.411 6.91942 99.411 8.06051V9.85852H87.2417C85.3017 9.85852 83.729 8.28585 83.729 6.34585V6.34585Z"
     stroke="#18181A"
     stroke-width="2"
     id="path10"
     style="stroke:#f2f2f2;stroke-opacity:1" />
  <path
     d="m 111.038,23.6489 c 0,0.0585 0,0.1168 -0.002,0.1749 -0.093,3.5041 -2.962,6.3162 -6.489,6.3162 -0.308,0 -0.611,-0.0215 -0.908,-0.0631 -3.155,-0.4416 -5.5828,-3.1513 -5.5828,-6.428 0,-0.0585 7e-4,-0.1168 0.0023,-0.1749 0.0926,-3.5041 2.9625,-6.3162 6.4885,-6.3162 0.308,0 0.612,0.0215 0.908,0.063 3.155,0.4416 5.583,3.1513 5.583,6.4281 z"
     fill="#ffb319"
     id="path11"
     sodipodi:nodetypes="scscscscs" />
  <path
     fill-rule="evenodd"
     clip-rule="evenodd"
     d="M98.0585 23.474C98.3552 23.5156 98.6583 23.537 98.9665 23.537C102.493 23.537 105.363 20.7249 105.455 17.2208C105.159 17.1793 104.855 17.1578 104.547 17.1578C101.021 17.1578 98.1511 19.9699 98.0585 23.474Z"
     fill="#FFB319"
     id="path12" />
  <path
     fill-rule="evenodd"
     clip-rule="evenodd"
     d="M111.036 23.8238C110.739 23.7823 110.436 23.7608 110.128 23.7608C106.601 23.7608 103.732 26.5729 103.639 30.0769C103.936 30.1185 104.239 30.14 104.547 30.14C108.074 30.14 110.943 27.3279 111.036 23.8238Z"
     fill="#FFB319"
     id="path13" />
  <path
     d="m 111.036,23.8238 c 0.002,-0.0581 0.002,-0.1164 0.002,-0.1749 0,-3.2768 -2.428,-5.9865 -5.583,-6.4281 m 5.581,6.603 c -0.093,3.5041 -2.962,6.3162 -6.489,6.3162 -0.308,0 -0.611,-0.0215 -0.908,-0.0631 m 7.397,-6.2531 c -0.297,-0.0415 -0.6,-0.063 -0.908,-0.063 -3.527,0 -6.396,2.8121 -6.489,6.3161 m 0,0 c -3.155,-0.4416 -5.5828,-3.1513 -5.5828,-6.428 0,-0.0585 7e-4,-0.1168 0.0023,-0.1749 m 0,0 c 0.0926,-3.5041 2.9625,-6.3162 6.4885,-6.3162 0.308,0 0.612,0.0215 0.908,0.063 m -7.3965,6.2532 c 0.2967,0.0416 0.5998,0.063 0.908,0.063 3.5265,0 6.3965,-2.8121 6.4885,-6.3162"
     stroke="#18181A"
     stroke-width="2"
     id="path14"
     style="stroke:#0a0a0a;stroke-opacity:1"
     sodipodi:nodetypes="csccsccsccsccsccsc" />
</svg>
