<?xml version="1.0" encoding="UTF-8" standalone="no"?>
<svg
   width="29.309025"
   height="29.307241"
   viewBox="0 0 29.309025 29.307241"
   fill="none"
   version="1.1"
   id="svg14"
   sodipodi:docname="kagi_news_icon.svg"
   inkscape:version="1.4.2 (ebf0e940, 2025-05-08)"
   xmlns:inkscape="http://www.inkscape.org/namespaces/inkscape"
   xmlns:sodipodi="http://sodipodi.sourceforge.net/DTD/sodipodi-0.dtd"
   xmlns="http://www.w3.org/2000/svg"
   xmlns:svg="http://www.w3.org/2000/svg">
  <defs
     id="defs14" />
  <sodipodi:namedview
     id="namedview14"
     pagecolor="#ffffff"
     bordercolor="#000000"
     borderopacity="0.25"
     inkscape:showpageshadow="2"
     inkscape:pageopacity="0.0"
     inkscape:pagecheckerboard="0"
     inkscape:deskcolor="#d1d1d1"
     inkscape:zoom="7.3628319"
     inkscape:cx="-22.477764"
     inkscape:cy="0.8828125"
     inkscape:window-width="1920"
     inkscape:window-height="958"
     inkscape:window-x="0"
     inkscape:window-y="31"
     inkscape:window-maximized="0"
     inkscape:current-layer="svg14" />
  <path
     d="m 18.068023,26.941442 h -7.068 c -4.7140004,0 -7.0711004,0 -8.5355004,-1.4644 -1.4645,-1.4645 -1.4645,-3.8215 -1.4645,-8.5356 V 6.3129315 l 0.4648,0.42394 c 0.69,0.62948 1.5446,1.05018 2.4643,1.21318 v 0 c 0.2843,0.05039 0.5724,0.07572 0.8611,0.07572 h 5.9231004 4.1354 2.1368 c 4.5065,0 6.7595,0 8.2015,1.34787 0.082,0.0764 0.161,0.1555 0.237,0.2371 1.348,1.4415005 1.348,3.6949005 1.348,8.2015005 v 0"
     stroke="#18181a"
     stroke-width="2"
     id="path6" />
  <path
     d="M 4.7132226,13.115042 H 16.253423"
     stroke="#18181a"
     stroke-width="2"
     stroke-linecap="round"
     stroke-linejoin="round"
     id="path7" />
  <path
     d="M 4.7133226,17.167442 H 11.261423"
     stroke="#18181a"
     stroke-width="2"
     stroke-linecap="round"
     stroke-linejoin="round"
     id="path8" />
  <path
     d="M 4.7133226,21.219942 H 11.261423"
     stroke="#18181a"
     stroke-width="2"
     stroke-linecap="round"
     stroke-linejoin="round"
     id="path9" />
  <path
     d="m 1.0000226,4.5130915 c 0,-1.93999 1.5727,-3.51266 3.5127,-3.51266 h 6.9419004 c 1.1411,0 1.7117,0 2.182,0.11559 1.4457,0.35529 2.5745,1.48407 2.9298,2.92978 0.1156,0.47032 0.1156,1.04086 0.1156,2.18195 v 1.79801 H 4.5127226 c -1.94,0 -3.5127,-1.57267 -3.5127,-3.51267 z"
     stroke="#18181a"
     stroke-width="2"
     id="path10" />
  <path
     d="m 28.309023,21.816142 c 0,0.0585 0,0.1168 -0.002,0.1749 -0.093,3.5041 -2.962,6.3162 -6.489,6.3162 -0.308,0 -0.611,-0.0215 -0.908,-0.0631 -3.155,-0.4416 -5.5828,-3.1513 -5.5828,-6.428 0,-0.0585 7e-4,-0.1168 0.0023,-0.1749 0.0926,-3.5041 2.9625,-6.3162 6.4885,-6.3162 0.308,0 0.612,0.0215 0.908,0.063 3.155,0.4416 5.583,3.1513 5.583,6.4281 z"
     fill="#ffb319"
     id="path11" />
  <path
     fill-rule="evenodd"
     clip-rule="evenodd"
     d="m 15.329523,21.641242 c 0.2967,0.0416 0.5998,0.063 0.908,0.063 3.5265,0 6.3965,-2.8121 6.4885,-6.3162 -0.296,-0.0415 -0.6,-0.063 -0.908,-0.063 -3.526,0 -6.3959,2.8121 -6.4885,6.3162 z"
     fill="#ffb319"
     id="path12" />
  <path
     fill-rule="evenodd"
     clip-rule="evenodd"
     d="m 28.307023,21.991042 c -0.297,-0.0415 -0.6,-0.063 -0.908,-0.063 -3.527,0 -6.396,2.8121 -6.489,6.3161 0.297,0.0416 0.6,0.0631 0.908,0.0631 3.527,0 6.396,-2.8121 6.489,-6.3162 z"
     fill="#ffb319"
     id="path13" />
  <path
     d="m 28.307023,21.991042 c 0.002,-0.0581 0.002,-0.1164 0.002,-0.1749 0,-3.2768 -2.428,-5.9865 -5.583,-6.4281 m 5.581,6.603 c -0.093,3.5041 -2.962,6.3162 -6.489,6.3162 -0.308,0 -0.611,-0.0215 -0.908,-0.0631 m 7.397,-6.2531 c -0.297,-0.0415 -0.6,-0.063 -0.908,-0.063 -3.527,0 -6.396,2.8121 -6.489,6.3161 m 0,0 c -3.155,-0.4416 -5.5828,-3.1513 -5.5828,-6.428 0,-0.0585 7e-4,-0.1168 0.0023,-0.1749 m 0,0 c 0.0926,-3.5041 2.9625,-6.3162 6.4885,-6.3162 0.308,0 0.612,0.0215 0.908,0.063 m -7.3965,6.2532 c 0.2967,0.0416 0.5998,0.063 0.908,0.063 3.5265,0 6.3965,-2.8121 6.4885,-6.3162"
     stroke="#18181a"
     stroke-width="2"
     id="path14" />
</svg>
