<?xml version="1.0" encoding="UTF-8" standalone="no"?><!DOCTYPE svg PUBLIC "-//W3C//DTD SVG 1.1//EN" "http://www.w3.org/Graphics/SVG/1.1/DTD/svg11.dtd"><svg width="100%" height="100%" viewBox="0 0 2775 2775" version="1.1" xmlns="http://www.w3.org/2000/svg" xmlns:xlink="http://www.w3.org/1999/xlink" xml:space="preserve" xmlns:serif="http://www.serif.com/" style="fill-rule:evenodd;clip-rule:evenodd;stroke-linecap:round;stroke-linejoin:bevel;"><g id="Artboard1"><rect x="0" y="0" width="2771.65" height="2771.65" style="fill:none;"/><g><g><g id="Line1"><g><g id="line1"><path d="M1441.33,205.55l5.03,0.768l4.66,1.713l4.156,2.54l3.555,3.25l2.872,3.868l2.105,4.393l1.227,4.81l0.257,5.082l-0.773,5.028l-1.713,4.665l-2.539,4.153l-3.249,3.556l-3.867,2.87l-4.392,2.105l-4.814,1.228l-5.077,0.252c-25.262,-1.289 -50.474,-1.722 -75.606,-1.314l-5.071,-0.432l-4.764,-1.396l-4.317,-2.253l-3.761,-3.004l-3.125,-3.667l-2.397,-4.24l-1.55,-4.721l-0.595,-5.054l0.43,-5.066l1.399,-4.767l2.255,-4.315l3.005,-3.766l3.662,-3.126l4.244,-2.392l4.716,-1.55l5.054,-0.596c26.254,-0.424 52.598,0.031 78.983,1.378Zm-157.886,2.559l5.088,0.089l4.849,1.073l4.457,1.956l3.961,2.748l3.366,3.446l2.672,4.07l1.864,4.604l0.934,4.997l-0.001,0.008l-0.087,5.086l-1.075,4.849l-1.958,4.457l-2.744,3.958l-3.446,3.364l-4.072,2.672l-4.603,1.865l-5.001,0.934c-25.172,2.103 -50.22,5.055 -75.099,8.834l-5.081,0.254l-4.91,-0.743l-4.577,-1.656l-4.132,-2.471l-3.589,-3.212l-2.94,-3.882l-2.171,-4.467l-1.269,-4.926l0.001,-0.008l-0.254,-5.079l0.747,-4.911l1.653,-4.58l2.472,-4.133l3.215,-3.589l3.883,-2.938l4.468,-2.17l4.925,-1.267c25.996,-3.95 52.16,-7.032 78.454,-9.232Zm-156.113,23.723l5.053,-0.596l4.947,0.412l4.682,1.342l4.292,2.191l3.795,2.963l3.198,3.676l2.461,4.312l1.598,4.829l0.595,5.054l-0.413,4.951l-1.346,4.68l-2.189,4.289l-2.962,3.797l-3.677,3.194l-4.308,2.466l-4.832,1.594c-24.635,5.46 -49.055,11.743 -73.228,18.838l-4.998,0.934l-4.967,-0.078l-4.763,-1.026l-4.427,-1.894l-3.991,-2.704l-3.435,-3.455l-2.75,-4.137l-1.911,-4.71l-0.938,-4.997l0.082,-4.967l1.022,-4.762l1.896,-4.429l2.705,-3.989l3.45,-3.435l4.136,-2.748l4.714,-1.917c25.254,-7.412 50.769,-13.976 76.509,-19.678Zm-151.526,44.464l4.929,-1.267l4.96,-0.258l4.819,0.702l4.548,1.594l4.158,2.427l3.662,3.216l3.022,3.941l2.226,4.57l1.269,4.926l0.255,4.958l-0.701,4.82l-1.59,4.547l-2.43,4.161l-3.21,3.661l-3.944,3.022l-4.572,2.23c-23.65,8.706 -47.008,18.213 -70.029,28.502l-4.832,1.597l-4.931,0.589l-4.856,-0.374l-4.64,-1.284l-4.315,-2.142l-3.868,-2.956l-3.28,-3.728l-2.534,-4.411l-0.004,-0.005l-1.593,-4.829l-0.593,-4.932l0.379,-4.855l1.284,-4.643l2.141,-4.313l2.958,-3.869l3.73,-3.281l4.413,-2.531c24.055,-10.75 48.459,-20.683 73.169,-29.785Zm-144.172,64.437l4.711,-1.923l4.879,-0.922l4.872,0.047l4.717,0.966l4.45,1.845l4.061,2.695l3.522,3.499l2.821,4.227l1.924,4.711l0.919,4.882l-0.044,4.872l-0.968,4.717l-1.848,4.452l-2.692,4.056l-3.495,3.525l-4.233,2.825c-22.237,11.796 -44.104,24.358 -65.55,37.667l-4.568,2.233l-4.807,1.25l-4.864,0.283l-4.769,-0.644l-4.567,-1.542l-4.232,-2.409l-3.753,-3.252l-3.103,-4.03l-0.004,-0.006l-2.234,-4.57l-1.246,-4.806l-0.281,-4.862l0.647,-4.772l1.538,-4.565l2.413,-4.231l3.255,-3.753l4.033,-3.105c22.411,-13.908 45.257,-27.033 68.496,-39.36Zm-134.186,83.268l4.409,-2.537l4.71,-1.571l4.831,-0.61l4.81,0.321l4.655,1.227l4.388,2.122l3.964,2.993l3.365,3.811l2.538,4.406l1.571,4.711l0.61,4.833l-0.32,4.805l-1.228,4.657l-2.12,4.385l-2.991,3.965l-3.811,3.369c-20.417,14.675 -40.388,30.068 -59.864,46.171l-4.229,2.831l-4.596,1.886l-4.779,0.934l-4.818,0.006l-4.727,-0.911l-4.517,-1.817l-4.16,-2.715l-3.62,-3.578l-2.83,-4.225l-1.888,-4.595l-0.937,-4.778l-0.003,-4.818l0.912,-4.731l1.819,-4.519l2.717,-4.158l3.577,-3.618c20.354,-16.83 41.222,-32.918 62.562,-48.252Zm-121.753,100.497l4.037,-3.1l4.464,-2.18l4.706,-1.245l4.809,-0.315l4.775,0.599l4.629,1.522l4.327,2.441l3.838,3.33l3.099,4.029l2.187,4.465l1.243,4.709l0.32,4.808l-0.602,4.777l-1.522,4.627l-2.438,4.327l-3.332,3.842c-18.362,17.314 -36.114,35.223 -53.215,53.696l-3.818,3.363l-4.302,2.479l-4.615,1.561l-4.773,0.644l-4.808,-0.276l-4.717,-1.201l-4.484,-2.14l-4.058,-3.063l-0.008,-0.006l-3.365,-3.814l-2.474,-4.302l-1.564,-4.613l-0.641,-4.771l0.276,-4.81l1.202,-4.719l2.138,-4.48l3.064,-4.063c17.882,-19.305 36.432,-38.025 55.622,-56.121Zm-107.304,115.886l3.576,-3.619l4.125,-2.762l4.498,-1.873l4.716,-0.964l4.816,-0.053l4.79,0.88l4.617,1.832l4.262,2.781l3.615,3.577l2.767,4.125l1.869,4.496l0.967,4.719l0.052,4.815l-0.878,4.791l-1.832,4.616l-2.779,4.263c-15.833,19.615 -30.996,39.763 -45.451,60.405l-3.321,3.85l-3.929,3.039l-4.358,2.172l-4.643,1.285l-4.804,0.379l-4.839,-0.552l-4.73,-1.514l-4.438,-2.483l-3.855,-3.326l-3.039,-3.926l-2.172,-4.361l-1.283,-4.642l-0.377,-4.8l0.553,-4.839l1.51,-4.729l2.484,-4.439c15.113,-21.576 30.961,-42.64 47.511,-63.143Zm-90.613,129.373l3.053,-4.07l3.71,-3.3l4.204,-2.466l4.545,-1.598l4.763,-0.705l4.863,0.22l4.823,1.188l4.6,2.177l4.071,3.057l3.297,3.71l2.463,4.198l1.599,4.544l0.707,4.764l-0.222,4.865l-1.187,4.823l-2.176,4.602c-13.007,21.556 -25.292,43.573 -36.829,66.011l-2.766,4.269l-3.48,3.544l-4.023,2.746l-4.426,1.903l-4.703,1.028l-4.868,0.111l-4.892,-0.858l-4.737,-1.857l-4.267,-2.77l-3.547,-3.477l-2.743,-4.025l-1.901,-4.425l-1.03,-4.703l-0.109,-4.871l0.854,-4.892l1.859,-4.736c12.057,-23.457 24.894,-46.474 38.495,-69.007Zm-72.198,140.483l2.472,-4.447l3.228,-3.774l3.826,-3.012l4.283,-2.202l4.625,-1.347l4.852,-0.442l4.937,0.52l4.851,1.53l0.008,0.003l4.443,2.473l3.775,3.229l3.008,3.825l2.203,4.286l1.345,4.624l0.443,4.851l-0.525,4.94l-1.529,4.85c-9.978,23.173 -19.146,46.657 -27.496,70.404l-2.165,4.605l-2.967,3.987l-3.612,3.266l-4.123,2.487l-4.524,1.66l-4.807,0.77l-4.966,-0.184l-4.944,-1.196l-4.605,-2.162l-3.982,-2.965l-3.265,-3.61l-2.487,-4.126l-1.662,-4.521l-0.773,-4.809l0.186,-4.962l1.198,-4.944c8.728,-24.829 18.317,-49.378 28.749,-73.607Zm-52.413,149.002l1.847,-4.74l2.685,-4.178l3.377,-3.504l3.946,-2.763l4.397,-1.965l4.747,-1.097l4.963,-0.157l5.018,0.857l4.742,1.843l4.178,2.685l3.503,3.379l2.763,3.947l1.964,4.396l1.1,4.744l0.157,4.966l-0.856,5.013c-6.722,24.287 -12.613,48.801 -17.651,73.497l-1.517,4.856l-2.395,4.353l-3.132,3.728l-3.75,3.024l-4.253,2.259l-4.658,1.422l-4.943,0.493l-5.059,-0.511l-4.856,-1.514l-4.35,-2.392l-3.731,-3.134l-3.028,-3.747l-2.262,-4.254l-1.42,-4.66l-0.495,-4.943l0.511,-5.062c5.28,-25.816 11.434,-51.447 18.458,-76.841Zm-31.617,154.767l1.177,-4.95l2.091,-4.505l2.871,-3.934l3.532,-3.277l4.09,-2.545l4.551,-1.735l4.896,-0.832l5.084,0.166l4.949,1.178l4.507,2.091l3.934,2.873l3.274,3.529l2.545,4.089l1.737,4.551l0.829,4.897l-0.164,5.084c-3.338,24.947 -5.837,50.034 -7.47,75.213l-0.836,5.017l-1.777,4.637l-2.594,4.122l-3.3,3.511l-3.905,2.818l-4.425,2.042l-4.831,1.165l-5.082,0.182l-5.014,-0.838l-4.64,-1.778l-4.118,-2.594l-3.512,-3.3l-2.817,-3.905l-2.043,-4.424l-1.161,-4.828l-0.184,-5.081c1.706,-26.33 4.314,-52.556 7.806,-78.639Z" style="fill:#fff;"/></g><g><path d="M1440.05,230.687c-298.597,-15.235 -591.265,86.428 -815.243,283.222c-115.057,100.539 -208.588,223.072 -275.067,360.288c-66.478,137.215 -104.536,286.324 -111.915,438.483" style="fill:none;fill-rule:nonzero;stroke:#18181a;stroke-width:24.39px;stroke-dasharray:77.33,77.33;"/></g></g></g></g><g><g id="Line2"><g><g id="line2"><path d="M2077.27,669.449l3.218,3.934l2.321,4.393l1.388,4.668l0.467,4.793l-0.455,4.797l-1.377,4.669l-2.306,4.4l-3.21,3.944l-3.935,3.222l-4.391,2.317l-4.668,1.392l-4.797,0.464l-4.794,-0.453l-4.672,-1.374l-4.4,-2.308l-3.941,-3.209c-17.846,-17.793 -36.33,-34.792 -55.398,-50.964l-3.528,-3.663l-2.662,-4.192l-1.764,-4.542l-0.851,-4.74l0.067,-4.818l0.997,-4.767l1.948,-4.573l2.881,-4.19l3.662,-3.526l4.194,-2.664l4.54,-1.763l4.741,-0.849l4.817,0.066l4.77,0.997l4.567,1.947l4.193,2.884c20.093,17.042 39.574,34.952 58.378,53.708Zm-120.901,-102.545l3.813,3.369l2.992,3.963l2.122,4.383l1.231,4.658l0.321,4.805l-0.608,4.83l-1.567,4.713l-2.536,4.411l-3.369,3.814l-3.965,2.992l-4.384,2.12l-4.657,1.231l-4.806,0.325l-4.832,-0.609l-4.714,-1.572l-4.405,-2.534c-20.432,-14.67 -41.403,-28.473 -62.862,-41.385l-4.073,-3.048l-3.306,-3.71l-2.469,-4.199l-1.601,-4.542l-0.71,-4.765l0.216,-4.867l1.186,-4.823l2.171,-4.599l3.044,-4.07l3.708,-3.307l4.199,-2.469l4.546,-1.602l4.762,-0.709l4.866,0.215l4.824,1.184l4.601,2.174c22.62,13.61 44.725,28.159 66.262,43.623Zm-135.841,-81.751l4.306,2.712l3.591,3.428l2.798,3.983l1.968,4.397l1.094,4.692l0.18,4.866l-0.789,4.903l-1.794,4.762l-2.706,4.307l-3.431,3.592l-3.983,2.8l-4.397,1.965l-4.691,1.096l-4.867,0.178l-4.902,-0.788l-4.76,-1.79c-22.497,-11.164 -45.416,-21.404 -68.717,-30.695l-4.509,-2.351l-3.859,-3.126l-3.117,-3.743l-2.314,-4.224l-1.469,-4.586l-0.577,-4.837l0.389,-4.952l1.401,-4.889l2.349,-4.51l3.126,-3.862l3.746,-3.115l4.221,-2.316l4.586,-1.47l4.836,-0.573l4.952,0.386l4.895,1.399c24.561,9.799 48.73,20.595 72.444,32.361Zm-147.276,-58.734l4.685,1.978l4.1,2.8l3.409,3.477l2.649,4.024l1.84,4.451l0.964,4.773l0.015,4.968l-0.999,4.989l-1.976,4.687l-2.8,4.099l-3.478,3.408l-4.02,2.653l-4.455,1.838l-4.772,0.966l-4.969,0.014l-4.985,-0.998c-23.962,-7.363 -48.24,-13.76 -72.77,-19.163l-4.835,-1.587l-4.312,-2.461l-3.682,-3.188l-2.971,-3.794l-2.194,-4.288l-1.348,-4.681l-0.42,-4.952l0.591,-5.048l1.586,-4.83l2.46,-4.315l3.188,-3.681l3.796,-2.97l4.286,-2.196l4.681,-1.349l4.95,-0.418l5.05,0.588c25.875,5.697 51.47,12.44 76.736,20.206Zm-154.862,-34.099l4.946,1.188l4.503,2.101l3.927,2.878l3.268,3.539l2.537,4.092l1.727,4.555l0.819,4.896l-0.173,5.085l-0,0.008l-1.19,4.943l-2.102,4.5l-2.879,3.926l-3.539,3.269l-4.094,2.537l-4.553,1.726l-4.898,0.821l-5.084,-0.177c-24.79,-3.371 -49.78,-5.743 -74.907,-7.094l-5.028,-0.782l-4.658,-1.725l-4.151,-2.549l-3.545,-3.263l-2.862,-3.874l-2.09,-4.399l-1.215,-4.814l-0.243,-5.077l0.78,-5.027l1.726,-4.658l2.55,-4.151l3.261,-3.546l3.874,-2.863l4.4,-2.091l4.815,-1.216l5.081,-0.24c26.507,1.423 52.859,3.926 78.997,7.482Z" style="fill:#fff;"/></g><g><path d="M2059.49,687.268c-177.926,-177.425 -417.661,-277.456 -667.807,-278.648" style="fill:none;fill-rule:nonzero;stroke:#18181a;stroke-width:24.39px;stroke-dasharray:77.33,77.33;"/></g></g></g></g><g><g id="Line3"><g><g id="line3"><path d="M689.591,2077.1l-3.149,-3.997l-2.234,-4.437l-1.3,-4.694l-0.374,-4.801l0.541,-4.785l1.469,-4.644l2.387,-4.356l3.287,-3.884l3.998,-3.146l4.435,-2.234l4.69,-1.3l4.805,-0.376l4.785,0.542l4.644,1.466l4.354,2.388l3.885,3.286c17.483,18.11 35.642,35.457 54.414,52.008l3.459,3.73l2.584,4.243l1.674,4.573l0.762,4.756l-0.157,4.816l-1.09,4.746l-2.029,4.532l-2.963,4.135l-3.731,3.461l-4.241,2.582l-4.574,1.673l-4.757,0.761l-4.814,-0.157l-4.75,-1.087l-4.532,-2.032l-4.136,-2.965c-19.783,-17.442 -38.918,-35.722 -57.342,-54.803Zm118.917,104.824l-3.746,-3.44l-2.918,-4.018l-2.036,-4.427l-1.143,-4.679l-0.232,-4.813l0.703,-4.82l1.659,-4.681l2.622,-4.361l3.439,-3.747l4.024,-2.916l4.42,-2.037l4.681,-1.139l4.814,-0.23l4.82,0.703l4.678,1.658l4.359,2.62c20.128,15.044 40.83,29.253 62.051,42.591l4.017,3.127l3.233,3.772l2.385,4.246l1.516,4.573l0.617,4.778l-0.311,4.859l-1.273,4.8l-2.26,4.555l-3.127,4.014l-3.773,3.231l-4.247,2.387l-4.572,1.515l-4.775,0.618l-4.86,-0.31l-4.8,-1.276l-4.558,-2.261c-22.373,-14.058 -44.197,-29.036 -65.407,-44.892Zm134.23,84.36l-4.256,-2.792l-3.523,-3.499l-2.72,-4.039l-1.882,-4.433l-1.001,-4.711l-0.085,-4.869l0.885,-4.889l1.883,-4.726l2.794,-4.251l3.497,-3.527l4.037,-2.721l4.435,-1.878l4.711,-1.005l4.869,-0.082l4.89,0.884l4.724,1.883c22.246,11.586 44.964,22.274 68.102,32.028l4.466,2.439l3.798,3.201l3.038,3.803l2.232,4.269l1.382,4.613l0.478,4.845l-0.482,4.941l-1.496,4.863l0,0.005l-2.441,4.463l-3.201,3.798l-3.802,3.041l-4.27,2.23l-4.61,1.383l-4.85,0.478l-4.94,-0.483l-4.862,-1.495c-24.393,-10.287 -48.349,-21.551 -71.8,-33.767Zm146.1,61.599l-4.648,-2.069l-4.045,-2.88l-3.34,-3.544l-2.57,-4.074l-1.752,-4.486l-0.871,-4.792l0.082,-4.967l1.097,-4.968l2.067,-4.647l2.881,-4.044l3.543,-3.34l4.072,-2.573l4.49,-1.751l4.79,-0.871l4.969,0.082l4.964,1.096c22.218,7.308 44.749,13.787 67.55,19.41c1.617,0.397 3.23,0.792 4.83,1.178l4.803,1.681l4.263,2.545l3.619,3.26l2.896,3.851l2.11,4.33l1.256,4.707l0.322,4.959l-0.689,5.039l-1.685,4.8l-2.544,4.264l-3.259,3.617l-3.853,2.895l-4.329,2.109l-4.706,1.258l-4.954,0.321l-5.041,-0.688c-1.702,-0.409 -3.403,-0.823 -5.1,-1.242c-24.043,-5.931 -47.795,-12.762 -71.218,-20.466Zm154.152,37.14l-4.921,-1.287l-4.458,-2.189l-3.869,-2.956l-3.198,-3.603l-2.456,-4.144l-1.633,-4.588l-0.728,-4.914l0.277,-5.075l1.286,-4.921l2.187,-4.461l2.959,-3.869l3.602,-3.199l4.143,-2.456l4.586,-1.636l4.914,-0.725l5.079,0.276c24.836,3.881 49.774,6.738 74.757,8.577l5.012,0.882l4.623,1.817l4.1,2.632l3.481,3.332l2.782,3.932l2.003,4.439l1.12,4.843l0.136,5.08l-0.879,5.008l-1.817,4.621l-2.63,4.097l-3.331,3.479l-3.928,2.786l-4.441,2.005l-4.838,1.121l-5.084,0.14c-26.353,-1.94 -52.652,-4.953 -78.836,-9.044Zm158.143,11.636l-5.064,-0.469l-4.754,-1.435l-4.302,-2.29l-3.74,-3.034l-3.096,-3.691l-2.357,-4.261l-1.514,-4.732l-0.552,-5.056l0.471,-5.066l1.434,-4.755l2.289,-4.299l3.039,-3.741l3.69,-3.095l4.263,-2.36l4.729,-1.511l5.058,-0.551c25.089,-0.204 50.158,-1.428 75.155,-3.673l5.087,0.058l4.855,1.044l4.473,1.93l3.973,2.721l3.387,3.425l2.695,4.055l1.892,4.591l0.965,4.996l-0.059,5.086l-1.042,4.858l-1.932,4.472l-2.722,3.975l-3.427,3.385l-4.052,2.695l-4.593,1.892l-4.994,0.964c-26.357,2.366 -52.803,3.66 -79.255,3.872Zm157.934,-14.183l-5.075,0.359l-4.925,-0.647l-4.615,-1.56l-4.183,-2.388l-3.653,-3.139l-3.018,-3.821l-2.258,-4.424l-1.367,-4.899l-0.357,-5.075l0.643,-4.926l1.561,-4.614l2.389,-4.185l3.139,-3.653l3.822,-3.016l4.424,-2.261l4.897,-1.363c24.687,-4.267 49.224,-9.537 73.572,-15.818l5.028,-0.768l4.962,0.241l4.725,1.182l4.362,2.042l3.899,2.833l3.316,3.565l2.613,4.222l1.756,4.769l0.771,5.028l-0.244,4.962l-1.178,4.727l-2.044,4.363l-2.83,3.897l-3.563,3.318l-4.226,2.611l-4.773,1.76c-25.666,6.623 -51.55,12.183 -77.57,16.678Z" style="fill:#fff;"/></g><g><path d="M707.699,2059.62c125.258,129.734 284.085,221.303 458.392,264.294c174.291,42.99 357.06,35.654 527.449,-21.142" style="fill:none;fill-rule:nonzero;stroke:#18181a;stroke-width:24.39px;stroke-dasharray:77.33,77.33;"/></g></g></g></g><g><g id="Line4"><g><g id="line4"><path d="M1400.68,2570.98l-5.065,-0.49l-4.749,-1.454l-4.291,-2.305l-3.725,-3.052l-3.084,-3.702l-2.339,-4.27l-1.496,-4.737l-0.534,-5.058l0.492,-5.065l1.456,-4.747l2.303,-4.292l3.053,-3.729l3.703,-3.079l4.268,-2.341l4.737,-1.494l5.06,-0.533c25.396,-0.106 50.59,-1.068 75.558,-2.85l5.087,0.15l4.837,1.13l4.436,2.014l3.925,2.792l3.322,3.488l2.622,4.105l1.806,4.626l0.87,5.009l-0.148,5.084l-1.133,4.836l-2.011,4.438l-2.793,3.925l-3.488,3.321l-4.101,2.623l-4.626,1.807l-5.014,0.872c-26.08,1.866 -52.402,2.867 -78.938,2.978Zm157.514,-11.28l-5.082,0.195l-4.904,-0.8l-4.56,-1.708l-4.102,-2.519l-3.552,-3.255l-2.895,-3.914l-2.121,-4.493l-1.21,-4.939l0,-0.008l-0.195,-5.083l0.8,-4.9l1.708,-4.561l2.522,-4.103l3.252,-3.552l3.918,-2.896l4.491,-2.118l4.94,-1.207c25.095,-3.52 49.923,-7.877 74.448,-13.045l5.06,-0.541l4.943,0.465l4.668,1.391l4.267,2.231l3.769,3.004l3.153,3.71l2.42,4.338l1.545,4.848l0.542,5.058l-0.464,4.943l-1.392,4.668l-2.234,4.268l-3.005,3.765l-3.706,3.156l-4.337,2.418l-4.845,1.544c-25.649,5.405 -51.604,9.962 -77.842,13.64Zm154.574,-32.572l-5.01,0.888l-4.966,-0.124l-4.751,-1.069l-4.411,-1.936l-3.962,-2.736l-3.403,-3.485l-2.714,-4.16l-1.872,-4.731l-0.89,-5.009l0.124,-4.963l1.068,-4.753l1.935,-4.412l2.741,-3.962l3.483,-3.405l4.161,-2.71l4.731,-1.873c24.333,-6.897 48.334,-14.608 71.96,-23.097l4.936,-1.229l4.964,-0.216l4.815,0.74l4.531,1.629l4.139,2.461l3.636,3.241l2.989,3.964l2.194,4.587l0.004,0.008l1.226,4.936l0.219,4.962l-0.744,4.816l-1.631,4.531l-2.457,4.14l-3.244,3.631l-3.962,2.991l-4.592,2.192c-24.708,8.877 -49.8,16.937 -75.247,24.153Zm148.661,-53.4l-4.838,1.563l-4.938,0.556l-4.854,-0.409l-4.631,-1.315l-4.299,-2.171l-3.85,-2.987l-3.254,-3.752l-2.501,-4.428l-1.565,-4.84l-0.555,-4.936l0.409,-4.854l1.315,-4.633l2.173,-4.299l2.984,-3.847l3.755,-3.256l4.429,-2.503c23.13,-10.146 45.857,-21.06 68.139,-32.708l4.723,-1.892l4.885,-0.891l4.868,0.077l4.715,0.996l4.439,1.872l4.043,2.718l3.5,3.518l2.8,4.25l1.891,4.725l0.89,4.885l-0.076,4.871l-0.996,4.711l-1.873,4.438l-2.717,4.043l-3.523,3.503l-4.246,2.797c-23.295,12.18 -47.051,23.589 -71.242,34.198Zm139.986,-73.169l-4.58,2.208l-4.815,1.223l-4.867,0.255l-4.766,-0.674l-4.555,-1.565l-4.219,-2.435l-3.734,-3.273l-3.082,-4.048l-2.206,-4.584l-1.226,-4.815l-0.25,-4.864l0.671,-4.77l1.566,-4.555l2.437,-4.219l3.275,-3.735l4.047,-3.078c21.52,-13.185 42.56,-27.082 63.084,-41.66l4.425,-2.513l4.724,-1.544l4.834,-0.582l4.805,0.349l4.651,1.257l4.371,2.144l3.947,3.013l3.344,3.828l2.517,4.425l1.544,4.721l0.583,4.836l-0.348,4.803l-1.259,4.649l-2.14,4.373l-3.016,3.947l-3.828,3.347c-21.45,15.233 -43.446,29.757 -65.934,43.536Zm128.766,-91.427l-4.242,2.808l-4.606,1.86l-4.783,0.906l-4.82,-0.022l-4.723,-0.938l-4.508,-1.845l-4.139,-2.739l-3.602,-3.597l-2.803,-4.244l-1.859,-4.604l-0.91,-4.785l0.024,-4.818l0.939,-4.724l1.845,-4.506l2.74,-4.144l3.596,-3.595c19.527,-15.956 38.51,-32.561 56.912,-49.781l4.043,-3.086l4.47,-2.165l4.714,-1.227l4.806,-0.3l4.778,0.618l4.62,1.537l4.316,2.455l3.835,3.346l3.082,4.042l2.166,4.472l1.229,4.712l0.303,4.808l-0.619,4.778l-1.538,4.621l-2.456,4.316l-3.348,3.833c-19.224,17.993 -39.056,35.342 -59.462,52.008Zm115.293,-107.894l-3.827,3.35l-4.316,2.459l-4.619,1.541l-4.773,0.624l-4.809,-0.296l-4.715,-1.223l-4.469,-2.159l-4.052,-3.081l-0.004,-0.006l-3.348,-3.827l-2.46,-4.315l-1.54,-4.618l-0.622,-4.776l0.295,-4.808l1.226,-4.712l2.16,-4.473l3.076,-4.048c17.201,-18.414 33.792,-37.414 49.734,-56.962l3.595,-3.601l4.141,-2.741l4.505,-1.849l4.727,-0.94l4.815,-0.028l4.783,0.905l4.61,1.856l4.245,2.801l3.597,3.595l2.743,4.139l1.85,4.507l0.942,4.724l0.028,4.814l-0.906,4.787l-1.853,4.607l-2.804,4.247c-16.658,20.423 -33.982,40.27 -51.955,59.507Zm99.8,-122.368l-3.348,3.832l-3.946,3.017l-4.374,2.147l-4.649,1.256l-4.802,0.35l-4.838,-0.581l-4.717,-1.542l-4.426,-2.51l-3.835,-3.346l-3.013,-3.948l-2.149,-4.371l-1.257,-4.649l-0.347,-4.805l0.578,-4.833l1.541,-4.722l2.513,-4.424c14.567,-20.534 28.461,-41.579 41.653,-63.107l3.08,-4.047l3.735,-3.275l4.215,-2.436l4.558,-1.566l4.768,-0.674l4.862,0.256l4.816,1.219l4.583,2.209l4.048,3.079l3.274,3.736l2.436,4.217l1.568,4.555l0.671,4.77l-0.255,4.866l-1.221,4.815l-2.209,4.582c-13.783,22.489 -28.295,44.481 -43.513,65.93Zm82.499,-134.648l-2.801,4.247l-3.507,3.519l-4.044,2.715l-4.44,1.869l-4.714,0.993l-4.868,0.073l-4.884,-0.894l-4.723,-1.892l-0.008,-0.003l-4.245,-2.804l-3.516,-3.505l-2.714,-4.044l-1.866,-4.438l-0.995,-4.714l-0.073,-4.87l0.898,-4.887l1.893,-4.717c11.66,-22.278 22.604,-44.996 32.789,-68.125l2.509,-4.424l3.259,-3.748l3.853,-2.98l4.301,-2.167l4.637,-1.309l4.85,-0.402l4.935,0.562l4.838,1.57l4.426,2.51l3.75,3.259l2.98,3.853l2.165,4.305l1.309,4.636l0.401,4.853l-0.562,4.936l-1.573,4.837c-10.646,24.169 -22.074,47.91 -34.26,71.186Zm63.639,-144.527l-2.204,4.584l-3,3.957l-3.642,3.235l-4.146,2.451l-4.534,1.617l-4.816,0.73l-4.959,-0.228l-4.934,-1.239l-4.586,-2.204l-3.959,-3l-3.233,-3.641l-2.452,-4.148l-1.62,-4.537l-0.728,-4.814l0.226,-4.961l1.241,-4.937c8.546,-23.612 16.326,-47.598 23.304,-71.915l1.889,-4.726l2.724,-4.154l3.414,-3.474l3.975,-2.724l4.416,-1.92l4.754,-1.054l4.965,-0.107l5.01,0.904l4.722,1.89l4.152,2.725l3.471,3.413l2.726,3.97l1.919,4.417l1.055,4.755l0.109,4.965l-0.905,5.006c-7.293,25.418 -15.424,50.484 -24.354,75.164Zm43.571,-151.801l-1.565,4.842l-2.436,4.33l-3.175,3.697l-3.78,2.987l-4.276,2.215l-4.673,1.372l-4.947,0.443l-5.057,-0.567l-4.838,-1.562l-4.324,-2.44l-3.697,-3.172l-2.988,-3.78l-2.217,-4.275l-1.37,-4.675l-0.442,-4.948l0.562,-5.054c5.275,-24.514 9.756,-49.33 13.407,-74.403l1.233,-4.939l2.14,-4.484l2.92,-3.902l3.568,-3.234l4.118,-2.499l4.57,-1.683l4.91,-0.774l5.079,0.221l4.938,1.237l4.481,2.144l3.898,2.915l3.233,3.568l2.5,4.116l1.681,4.568l0.777,4.904l-0.222,5.082l0,0.008c-3.82,26.203 -8.495,52.127 -14.008,77.742Zm22.765,-156.247l-0.905,5.006l-1.836,4.614l-2.648,4.085l-3.345,3.469l-3.943,2.766l-4.448,1.986l-4.843,1.102l-5.086,0.118l-5.009,-0.904l-4.613,-1.837l-4.087,-2.649l-3.463,-3.345l-2.77,-3.941l-1.984,-4.448l-1.1,-4.845l-0.118,-5.083c1.941,-24.969 3.073,-50.167 3.363,-75.564l0.569,-5.057l1.529,-4.727l2.372,-4.252l3.11,-3.681l3.752,-3.022l4.308,-2.275l4.758,-1.418l5.064,-0.453l5.053,0.569l4.729,1.528l4.251,2.374l3.68,3.107l3.024,3.75l2.275,4.307l1.418,4.759l0.454,5.066c-0.301,26.518 -1.481,52.826 -3.511,78.895Z" style="fill:#fff;"/></g><g><path d="M1400.57,2545.81c629.83,-2.636 1138.23,-518.281 1135.58,-1151.74" style="fill:none;fill-rule:nonzero;stroke:#18181a;stroke-width:24.39px;stroke-dasharray:77.33,77.33;"/></g></g></g></g></g></g></svg>