<?xml version="1.0" encoding="UTF-8" standalone="no"?><!DOCTYPE svg PUBLIC "-//W3C//DTD SVG 1.1//EN" "http://www.w3.org/Graphics/SVG/1.1/DTD/svg11.dtd"><svg width="100%" height="100%" viewBox="0 0 2775 2775" version="1.1" xmlns="http://www.w3.org/2000/svg" xmlns:xlink="http://www.w3.org/1999/xlink" xml:space="preserve" xmlns:serif="http://www.serif.com/" style="fill-rule:evenodd;clip-rule:evenodd;stroke-linecap:round;stroke-linejoin:round;stroke-miterlimit:10;"><g id="Artboard1"><rect x="0" y="0" width="2771.65" height="2771.65" style="fill:none;"/><g><g id="Doggo"><g><g id="Dog"><path d="M547.106,840.978l0.081,-0.253l0.25,-0.836l12.474,16.757l-12.377,-17.068c15.955,-48.804 68.474,-75.515 117.305,-59.591c45.325,14.78 71.587,61.033 62.388,106.63c150.379,-199.442 389.388,-328.372 658.547,-328.372c286.538,-0 538.853,146.135 686.446,367.88c86.855,130.417 137.509,287.086 137.509,455.532l0,252.127l4.492,260.032l-0.412,4.994l-1.375,4.77l-2.284,4.409l-3.138,3.91l-0.008,0.006l-3.853,3.206l-4.367,2.36l-4.743,1.458l-4.989,0.499c-72.719,-0 -131.566,-58.908 -131.566,-131.496l0,-126.701c0,-7.207 -5.858,-13.04 -13.072,-13.04l-48.026,0c-2.98,0 -5.952,-0.042 -8.912,-0.129c-2.963,10.751 -6.34,21.385 -10.152,31.872c-6.138,17.071 -13.388,33.715 -22.049,49.605c-8.515,15.913 -18.17,31.231 -29.091,45.425c-21.575,28.905 -48.565,53.078 -77.563,72.556l-3.368,1.799l-3.563,1.062l-3.61,0.34l-3.562,-0.345l-3.429,-1.01l-3.223,-1.667l-2.907,-2.315l-2.438,-2.913l-2.745,-6.192l-0.388,-6.587l1.892,-6.26l3.926,-5.213l-0.15,-0.377c22.469,-21.232 41.703,-45.288 55.535,-72.031l0.122,-0.222c7.136,-13.171 12.894,-27.041 17.661,-41.103l0.036,-0.103c4.917,-14.12 8.532,-28.589 11.196,-43.187l0.016,-0.087c1.537,-8.113 2.754,-16.282 3.68,-24.48c-18.745,-5.348 -36.738,-12.459 -53.797,-21.14l0,124.247l-0.513,5.06l-1.472,4.743l-2.325,4.28l-3.065,3.718l-3.715,3.067l-4.282,2.323l-4.743,1.471l-5.062,0.512c-72.719,-0 -131.566,-58.908 -131.566,-131.477l0,-52.178l-3.708,-195.142l0.623,3.734l-1.205,-7.694l1.173,-7.439l-0.68,4.264c-0.198,-23.054 -2.886,-45.494 -7.848,-67.14l12.688,10.107l-12.696,-10.126c-14.026,-61.465 -46.186,-116.038 -90.546,-157.824c-19.258,17.965 -46.534,26.846 -74.393,21.601l-0.036,-0.008c-6.081,-1.163 -12.166,-3.069 -17.601,-5.318l-0.125,-0.053c-43.106,-18.36 -87.78,-29.652 -131.994,-32.352c-2.632,-0.134 -5.325,-0.461 -7.961,-0.543l-7.97,0.129c-5.373,0.206 -10.88,-0.018 -16.262,0.449l-16.723,1.772l-0.239,0.023c-5.3,0.462 -10.201,1.938 -15.437,2.766c-3.295,0.699 -6.587,1.459 -9.862,2.287c25.611,8.999 43.975,33.398 43.975,62.042c0,36.276 -29.451,65.743 -65.776,65.743l-8.839,-0c-103.509,-0 -187.852,83.491 -189.102,186.64c29.65,116.423 124.619,206.783 243.659,229.755c0.056,0.011 0.113,0.022 0.165,0.035c0.105,0.021 0.211,0.042 0.316,0.066c-0,-0 39.45,8.409 81.307,10.012l2.454,-0.243l0.012,0l117.054,0.48c138.512,0.04 250.864,112.259 250.864,250.758l-0,4.167c-0,138.446 -112.316,250.758 -250.933,250.758l-127.421,-0c-4.629,0.074 -9.275,0.113 -13.921,0.113c-4.577,0 -9.138,-0.039 -13.69,-0.113l-18.034,-0l-4.184,-0.351l-1.448,-0.374c-22.481,-1.01 -44.727,-2.922 -66.715,-5.67c0.498,0.024 0.769,-0.005 0.769,-0.005l-4.036,-0.643c0.643,0.211 1.221,0.353 1.727,0.453c-113.262,-14.484 -219.411,-51.959 -313.527,-107.621c-195.886,-115.843 -339.598,-310.364 -387.544,-540.051c-17.79,-55.696 -31.105,-111.366 -42.798,-168.351l-0.008,-0.04c-11.528,-57.038 -19.881,-115.078 -24.782,-174.033l-0.004,-0.071c-2.288,-29.504 -3.675,-59.324 -4.047,-89.337l-0,-0.066c-0.218,-30.082 1.083,-60.321 3.113,-90.914l0.016,-0.172c2.443,-30.745 6.397,-61.723 12.207,-92.862l0.041,-0.2c6.299,-31.055 14.034,-62.318 24.276,-93.675Zm734.597,1357.59c-0.384,-0.018 -0.905,-0.071 -1.54,-0.195c0.222,0.027 0.445,0.056 0.667,0.085c0.008,-0 0.016,0.002 0.02,0.002c0.283,0.037 0.57,0.071 0.853,0.108Zm-692.357,-640.102l2.038,1.659c0.15,0.002 0.23,-0.003 0.23,-0.003l-2.268,-1.656Zm14.641,-15.423c0.012,0.032 0.02,0.061 0.032,0.092l-3.214,4.399l-9.106,12.847l12.749,-15.671c46.288,222.715 185.564,411.335 375.442,523.623c91.31,54.004 194.314,90.326 304.219,104.289c21.931,2.763 44.125,4.667 66.561,5.645c1.205,0.053 2.398,0.274 3.542,0.654l18.187,0c4.448,0.074 8.907,0.113 13.375,0.113c4.529,0 9.049,-0.039 13.562,-0.113l127.78,0c124.223,0 224.886,-100.647 224.886,-224.716l-0,-4.167c-0,-124.128 -100.707,-224.695 -224.853,-224.716l-0.049,-0l-116.989,-0.48c-0.995,0.2 -2.01,0.279 -3.024,0.243c-43.757,-1.633 -85.141,-10.369 -86.143,-10.582c1.176,0.229 1.977,0.248 2.304,0.242l0.393,0.04l-0.38,-0.04c0.101,-0.002 0.149,-0.008 0.149,-0.008l-0.218,0l-2.402,-0.263c-129.479,-25.048 -232.64,-123.693 -264.247,-250.603c-0.259,-1.044 -0.392,-2.117 -0.388,-3.193c0.441,-118.187 96.781,-214.185 215.165,-214.185l8.839,0c21.939,0 39.729,-17.791 39.729,-39.701c0,-21.667 -17.394,-39.307 -38.997,-39.695c-0.554,-0.011 -1.108,-0.055 -1.658,-0.137c-3.461,-0.509 -16.145,-2.089 -33.705,-1.308c-0.194,0.011 -0.384,0.013 -0.578,0.013l-6.134,-24.507l0.449,-0.24l5.632,22.406l0,-0.021l-5.58,-22.414c21.507,-11.417 44.283,-19.101 67.503,-23.987c0.243,-0.051 0.486,-0.095 0.732,-0.132c5.867,-0.889 11.366,-2.471 17.302,-3.006l16.751,-1.775l0.227,-0.021c5.854,-0.517 11.85,-0.316 17.701,-0.541l0.279,-0.007l8.495,-0.143l0.542,0.003c2.964,0.074 5.996,0.435 8.956,0.583l0.145,0.007c47.081,2.867 94.679,14.809 140.582,34.356c3.858,1.59 8.164,2.956 12.474,3.781c22.837,4.291 45.111,-5.046 58.373,-22.286c2.188,-2.846 5.455,-4.66 9.025,-5.018c3.57,-0.356 7.129,0.775 9.838,3.127c53.311,46.317 92.013,108.99 108.259,180.196l-12.659,15.871l-0.033,0.055l12.692,-15.926c5.374,23.449 8.289,47.753 8.503,72.732c0.013,1.166 -0.133,2.326 -0.432,3.452c0.323,1.107 0.501,2.255 0.521,3.409l3.712,195.266l0.004,0.248l0,52.302c0,57.911 46.733,104.966 104.649,105.43l0,-145.529c0,-4.704 2.539,-9.042 6.639,-11.349c4.1,-2.307 9.126,-2.223 13.145,0.221c23.629,14.356 49.591,25.264 77.187,32.023c6.219,1.524 10.408,7.338 9.882,13.717c-1.047,12.725 -2.717,25.406 -5.095,37.968c-2.895,15.882 -6.849,31.619 -12.194,46.981c-5.22,15.397 -11.544,30.569 -19.356,44.993c-2.09,4.042 -4.298,8.029 -6.606,11.963c2.846,-3.42 5.608,-6.922 8.28,-10.5l0.118,-0.158c10.116,-13.134 19.015,-27.286 26.876,-41.982l0.052,-0.092c8.034,-14.737 14.746,-30.181 20.435,-46.018l0.02,-0.051c4.727,-12.994 8.734,-26.231 12.082,-39.637c1.524,-6.104 7.193,-10.244 13.472,-9.841c5.948,0.383 11.948,0.578 17.993,0.578l48.026,-0c21.6,-0 39.119,17.498 39.119,39.081l0,126.701c0,57.922 46.725,104.974 104.633,105.449l-4.48,-259.26l-0.004,-0.224l0,-252.24c0,-163.109 -49.037,-314.816 -133.142,-441.098c-142.927,-214.744 -387.277,-356.272 -664.766,-356.272c-321.617,-0 -598.778,190.086 -725.116,463.985c-2.854,6.189 -9.995,9.132 -16.379,6.746c-6.385,-2.387 -9.85,-9.29 -7.95,-15.835c6.83,-23.473 14.524,-46.322 23.274,-68.334l0.044,-0.106c9.822,-24.101 21.3,-46.97 33.936,-68.31l0.02,-0.035c2.398,-4.024 4.573,-8.659 6.073,-13.26l0.004,-0.014c11.487,-35.141 -7.755,-72.912 -42.912,-84.377c-35.091,-11.441 -72.816,7.687 -84.4,42.681c-0.028,0.081 -0.052,0.163 -0.077,0.245l-0.254,0.846l-12.474,9.277l12.377,-8.974c-9.955,30.43 -17.451,60.772 -23.573,90.941c-5.624,30.155 -9.449,60.157 -11.818,89.935c-1.986,29.91 -3.267,59.472 -3.057,88.881c0.368,29.42 1.726,58.652 3.97,87.576c4.816,57.919 13.02,114.938 24.349,170.977c11.524,56.16 24.628,111.023 42.176,165.909Zm-12.635,17.082l-12.106,-8.952c2.758,8.393 10.573,8.928 12.106,8.952Zm695.159,613.034c5.547,1.804 9.336,7.178 8.956,13.203c-0.433,6.856 -6.118,12.196 -12.987,12.201c6.873,0 12.566,-5.342 12.995,-12.206c0.38,-6.025 -3.417,-11.397 -8.964,-13.198Zm-34.983,-1009.27l-0.299,0.074l-5.446,1.474c0.82,0.029 2.971,-0.071 5.745,-1.548Zm472.902,218.813c-0.036,0.105 -0.068,0.211 -0.105,0.316c0.037,-0.1 0.073,-0.206 0.105,-0.316Zm-20.629,-60.759l-11.592,-7.096c3.922,7.668 11.374,7.115 11.592,7.096Zm140.647,513.393c-0.497,0.48 -1.003,0.957 -1.504,1.432l-8.426,3.351l-0.38,0.567l8.85,-3.47c0.599,-0.554 1.088,-1.192 1.46,-1.88Zm-10.812,4.994l-11.802,-8.385c2.968,7.8 10.112,8.364 11.802,8.385Zm-510.375,-125.589l-0.013,0l-0.08,-0.008l0.024,0l0.069,0.008Zm-2.317,-0.242l2.224,0.234c-0.748,-0.015 -1.492,-0.092 -2.224,-0.234Z" style="fill:#fff;"/></g><g><path d="M704.786,909.059c-12.307,20.816 -23.494,43.11 -33.066,66.595c-9.381,23.611 -17.542,48.182 -24.686,73.47c-6.952,25.416 -12.362,51.448 -17.017,77.874c-4.377,26.509 -7.949,53.378 -10.699,80.522c-5.117,54.247 -6.951,109.501 -5.746,164.918c1.116,55.302 5.354,111.456 13.012,165.998l0.087,0.627c1.383,9.867 -5.474,18.992 -15.36,20.38c-8.847,1.291 -17.032,-4.099 -19.684,-12.35c-17.715,-55.375 -30.946,-110.713 -42.57,-167.361c-11.425,-56.563 -19.713,-114.093 -24.579,-172.545c-2.252,-29.215 -3.626,-58.761 -4.003,-88.49c-0.206,-29.755 1.078,-59.687 3.085,-89.948c2.408,-30.307 6.315,-60.833 12.038,-91.502c6.218,-30.663 13.843,-61.52 23.969,-92.465l0.345,-1.156c13.722,-41.969 58.893,-64.955 100.894,-51.262c42.001,13.693 64.978,58.827 51.257,100.796c-1.796,5.521 -4.39,11.076 -7.277,15.899Z" style="fill:#18181a;fill-rule:nonzero;"/></g><g><path d="M1724.15,1381.73l3.789,199.289l-0,52.416c-0,58.68 47.59,106.305 106.391,106.305l-0,-169.049c45.532,32.938 101.547,52.33 162.06,52.33l48.023,0c21.123,0 38.249,17.109 38.249,38.214l0,126.701c0,58.696 47.591,106.321 106.391,106.321l-4.498,-260.251l0,-252.345c0,-163.288 -49.095,-315.159 -133.291,-441.582c-143.083,-214.979 -387.696,-356.661 -665.49,-356.661c-441.22,0 -798.867,357.37 -798.867,798.312c0,292.636 157.563,548.389 392.54,687.354c91.41,54.061 194.531,90.424 304.555,104.402c33.336,4.203 67.295,6.418 101.772,6.418c34.461,-0 68.419,-2.145 101.755,-6.418c49.027,-6.211 96.687,-16.832 142.495,-31.589l-209.218,-417.415c-48.888,-0 -99.697,-10.83 -99.697,-10.83c-155.988,-30.1 -273.727,-167.284 -273.727,-331.922c-0,-186.746 151.49,-338.115 338.392,-338.115c160.833,0 295.56,112.221 329.882,262.604c5.57,24.323 8.494,49.562 8.494,75.511Zm0,0l-0.502,0.433" style="fill:#fff;fill-rule:nonzero;stroke:#18181a;stroke-width:24.39px;"/></g><g><path d="M786.994,1704.96c-69.509,-47.348 -87.483,-142.045 -40.1,-211.553l16.624,-24.323l276.15,188.095c-56.517,82.864 -169.689,104.246 -252.674,47.781Z" style="fill:#fff;fill-rule:nonzero;stroke:#18181a;stroke-width:24.39px;"/></g><g><path d="M1052.21,1886.35c-69.509,-47.349 -87.483,-142.028 -40.1,-211.554l16.625,-24.305l276.15,188.095c-56.587,82.847 -169.69,104.246 -252.675,47.764Z" style="fill:#fff;fill-rule:nonzero;stroke:#18181a;stroke-width:24.39px;"/></g><g><ellipse cx="970.921" cy="1659.05" rx="46.317" ry="46.317" style="fill:#18181a;"/></g><g><ellipse cx="1214.35" cy="1829.32" rx="46.317" ry="46.317" style="fill:#18181a;"/></g><g><path d="M811.005,1414.2l216.294,236.292" style="fill:none;fill-rule:nonzero;stroke:#18181a;stroke-width:24.39px;stroke-linejoin:bevel;"/></g><g><path d="M1004.39,1543.99l193.251,218.663" style="fill:none;fill-rule:nonzero;stroke:#18181a;stroke-width:24.39px;stroke-linejoin:bevel;"/></g><g><path d="M1410.03,1723.86l117.091,0.48c124.701,-0 225.87,101.014 225.87,225.697l0,4.165c0,124.615 -101.101,225.698 -225.87,225.698l-173.065,-0l55.974,-456.04Z" style="fill:#18181a;fill-rule:nonzero;stroke:#18181a;stroke-width:24.17px;"/></g><g><path d="M1513.52,1158.24c-44.529,-18.96 -90.683,-30.585 -136.354,-33.37c-2.854,-0.138 -5.778,-0.502 -8.632,-0.571l-8.494,0.138c-5.64,0.225 -11.418,0 -17.057,0.502l-16.85,1.782c-5.709,0.502 -10.985,2.076 -16.624,2.924c-22.04,4.636 -43.664,11.919 -64.077,22.748c-40.74,21.676 -76.861,56.05 -105.474,97.551c-14.411,20.742 -26.97,43.127 -37.748,66.585c-5.207,11.764 -10.345,23.752 -14.704,35.948c-4.342,12.04 -8.546,24.877 -11.556,36.64l-0.069,0.934c-2.215,8.771 -11.124,14.047 -19.912,11.764c-7.923,-2.007 -12.974,-9.48 -12.196,-17.334c2.716,-29.011 8.356,-55.825 15.691,-83.279c7.646,-27.16 17.212,-54.043 29.408,-80.217c24.254,-52.192 59.943,-102.031 109.177,-140.246c49.165,-37.937 111.027,-61.689 172.907,-69.162c62.157,-8.2 124.019,-2.786 182.889,8.338l1.712,0.277c39.391,7.421 65.288,45.428 57.867,84.784c-7.422,39.356 -45.446,65.235 -84.836,57.831c-5.207,-1.003 -10.414,-2.646 -15.068,-4.567Z" style="fill:#18181a;fill-rule:nonzero;"/></g><g><path d="M1047.28,1328.03l-460.373,-74.786" style="fill:none;fill-rule:nonzero;stroke:#18181a;stroke-width:48.52px;stroke-linecap:butt;stroke-linejoin:bevel;"/></g><g><path d="M853.25,1222.73c47.297,0 85.632,-38.301 85.632,-85.562c0,-47.245 -38.335,-85.563 -85.632,-85.563c-47.296,0 -85.632,38.318 -85.632,85.563c0,47.261 38.336,85.562 85.632,85.562Z" style="fill:#fff;fill-rule:nonzero;stroke:#18181a;stroke-width:24.39px;"/></g><g><path d="M814.067,1273.57l15.552,-54.199" style="fill:none;fill-rule:nonzero;stroke:#18181a;stroke-width:24.39px;"/></g><g><path d="M1834,1827.3c23.544,-22.247 43.664,-47.487 58.161,-75.512c7.49,-13.822 13.545,-28.37 18.544,-43.127c5.138,-14.756 8.927,-29.876 11.712,-45.134c5.778,-30.516 7.197,-61.758 5.709,-92.62c-0.796,-15.483 -2.439,-30.81 -4.723,-45.999c-1.211,-7.56 -2.491,-15.12 -4.134,-22.455c-0.779,-3.719 -1.644,-7.352 -2.491,-10.916c-0.865,-3.356 -1.938,-7.559 -2.716,-9.687c-7.284,-20.05 3.062,-42.141 23.111,-49.424c20.068,-7.266 42.176,3.062 49.529,23.112c0.865,2.421 1.505,4.913 1.937,7.334l0.415,2.855c0.865,5.916 1.142,9.843 1.575,14.618c0.363,4.567 0.64,9.047 0.778,13.545c0.432,8.978 0.502,17.836 0.432,26.676c-0.207,17.68 -1.28,35.221 -3.286,52.693c-3.997,34.859 -11.487,69.302 -23.476,102.239c-5.916,16.469 -12.905,32.523 -21.261,47.85c-8.199,15.328 -17.489,30.084 -28.042,43.785c-20.69,27.731 -46.604,50.895 -74.422,69.578c-2.647,1.782 -6.279,1.072 -8.061,-1.557c-1.644,-2.422 -1.228,-5.57 0.847,-7.491l-0.138,-0.363Z" style="fill:#18181a;fill-rule:nonzero;"/></g><g><ellipse cx="1169.93" cy="2018.11" rx="21.339" ry="21.282" style="fill:#18181a;"/></g><g><ellipse cx="1230.07" cy="2018.11" rx="21.339" ry="21.282" style="fill:#18181a;"/></g><g><ellipse cx="1198.62" cy="2069.86" rx="21.339" ry="21.282" style="fill:#18181a;"/></g><g><path d="M1057.03,1461.48c-0,-118.068 96.115,-214.113 214.287,-214.113l8.84,-0c22.42,-0 40.602,-18.182 40.602,-40.567c-0,-22.403 -18.182,-40.585 -40.602,-40.585c-0,0 -162.406,-27.661 -203.873,144.035c-26.901,111.442 -19.254,151.23 -19.254,151.23Z" style="fill:#fff;fill-rule:nonzero;stroke:#18181a;stroke-width:24.39px;"/></g><g><ellipse cx="1258.77" cy="2069.86" rx="21.339" ry="21.282" style="fill:#18181a;"/></g></g></g></g><g><g id="Ball"><g><g id="ball"><path d="M2449.15,1252.71l0.712,1.774c-9.073,-18.574 -13.897,-38.938 -14.103,-59.619c-0.218,-21.322 4.468,-42.414 13.703,-61.645c9.243,-19.276 22.8,-36.173 39.632,-49.426l0.004,-0.005c16.788,-13.203 36.398,-22.426 57.318,-26.935c30.503,-6.709 62.381,-3.03 90.526,10.455c30.313,14.379 54.375,39.141 67.835,69.711l-0.704,-1.377l2.515,5.851l-0.517,-1.468c7.545,17.949 11.232,37.28 10.828,56.742c-0.421,19.948 -5.131,39.58 -13.824,57.558c-8.621,17.973 -21.001,33.902 -36.313,46.709c-15.316,12.821 -33.204,22.229 -52.487,27.593l-0.016,0.005c-32.864,9.092 -67.928,5.938 -98.612,-8.889c-27.519,-13.074 -49.968,-34.738 -63.97,-61.65l0.983,1.595l-3.51,-6.979Zm24.762,-8.075c0.319,0.459 0.61,0.939 0.869,1.435c11.398,21.904 29.674,39.532 52.074,50.166l0.085,0.04c25.004,12.093 53.582,14.666 80.365,7.257c15.704,-4.367 30.272,-12.027 42.742,-22.469l0.004,-0.003c12.465,-10.423 22.537,-23.389 29.552,-38.018l0.02,-0.04c7.064,-14.611 10.897,-30.566 11.237,-46.778c0.331,-15.818 -2.669,-31.521 -8.798,-46.105c-0.186,-0.441 -0.344,-0.889 -0.482,-1.348c-0.234,-0.406 -0.448,-0.828 -0.634,-1.258c-10.95,-24.863 -30.531,-44.995 -55.188,-56.687l-0.048,-0.024c-22.918,-10.985 -48.88,-13.975 -73.718,-8.509l-0.061,0.013c-17.054,3.671 -33.042,11.186 -46.728,21.952c-13.699,10.788 -24.737,24.536 -32.258,40.226l-0.004,0.01c-7.508,15.629 -11.321,32.774 -11.143,50.106c0.174,16.805 4.092,33.356 11.467,48.455c0.25,0.512 0.465,1.039 0.647,1.579Z" style="fill:#fff;"/></g><g><path d="M2471.96,1144.02c7.604,-15.841 18.741,-29.724 32.565,-40.611c13.835,-10.874 29.974,-18.467 47.212,-22.167c25.092,-5.527 51.318,-2.507 74.465,8.595c25.39,12.033 45.457,32.935 56.379,58.731c6.506,15.041 9.706,31.3 9.359,47.678c-0.346,16.378 -4.214,32.493 -11.352,47.248c-7.079,14.778 -17.261,27.873 -29.843,38.402c-12.594,10.541 -27.301,18.276 -43.142,22.681c-27.05,7.485 -55.926,4.882 -81.174,-7.341c-23.182,-10.995 -41.995,-29.402 -53.431,-52.274c-7.902,-15.626 -12.104,-32.851 -12.283,-50.351c-0.179,-17.501 3.664,-34.81 11.245,-50.591Z" style="fill:#fcb219;fill-rule:nonzero;stroke:#18181a;stroke-width:23.87px;stroke-linejoin:bevel;stroke-miterlimit:4;"/></g><g><path d="M2607.61,1304.36c-6.518,-15.041 -9.717,-31.299 -9.371,-47.677c0.347,-16.378 4.214,-32.494 11.365,-47.248c7.079,-14.779 17.249,-27.874 29.843,-38.415c12.582,-10.528 27.289,-18.264 43.129,-22.669" style="fill:none;fill-rule:nonzero;stroke:#18181a;stroke-width:23.87px;stroke-linejoin:bevel;stroke-miterlimit:4;"/></g><g><path d="M2551.74,1081.24c7.914,15.674 12.116,32.935 12.283,50.471c0.167,17.536 -3.7,34.881 -11.316,50.698c-7.605,15.828 -18.742,29.7 -32.565,40.575c-13.836,10.874 -29.987,18.443 -47.213,22.131" style="fill:none;fill-rule:nonzero;stroke:#18181a;stroke-width:23.87px;stroke-linejoin:bevel;stroke-miterlimit:4;"/></g></g></g></g></g></svg>