<?xml version="1.0"?>
<svg width="500" height="320" xmlns="http://www.w3.org/2000/svg" xmlns:svg="http://www.w3.org/2000/svg">
 <defs>
  <clipPath id="clip0_106_265">
   <rect fill="white" height="463.7" id="svg_1" width="1024"/>
  </clipPath>
 </defs>
 <g class="layer">
  <title>Layer 1</title>
  <g clip-path="url(#clip0_106_265)" id="svg_2">
   <path d="m367.47,192.24c4.43,4.64 8.26,9.82 11.39,15.43c3.34,5.86 5.57,12.29 6.59,18.97c1.06,7.34 0.04,14.82 -2.92,21.6c-3.14,6.77 -7.72,12.76 -13.42,17.56l-0.14,0.12c-1.89,1.64 -4.35,2.47 -6.84,2.29c-2.49,-0.17 -4.81,-1.34 -6.44,-3.23c-0.81,-0.94 -1.43,-2.03 -1.82,-3.2c-0.39,-1.18 -0.55,-2.43 -0.46,-3.66c0.09,-1.24 0.41,-2.45 0.97,-3.56c0.55,-1.11 1.31,-2.1 2.24,-2.92c0.51,-0.44 1.07,-0.83 1.66,-1.17c4.42,-2.25 8.29,-5.45 11.35,-9.36c2.99,-4.09 4.75,-8.95 5.08,-14.01c0.33,-5.66 -0.38,-11.33 -2.09,-16.74c-1.75,-5.72 -4.21,-11.2 -7.32,-16.31c-0.19,-0.32 -0.26,-0.71 -0.17,-1.08c0.09,-0.36 0.31,-0.68 0.63,-0.89c0.26,-0.16 0.57,-0.24 0.88,-0.21c0.31,0.03 0.6,0.16 0.83,0.37z" fill="#191919" id="svg_25"/>
   <path d="m419.08,69.89l-81.02,-47.17l7.63,1.88l83.6,17.61c2.08,0.45 4.03,1.35 5.73,2.62c1.71,1.28 3.11,2.91 4.14,4.78c1.02,1.88 1.63,3.95 1.79,6.08c0.15,2.13 -0.15,4.27 -0.89,6.27c-0.73,2.01 -1.89,3.83 -3.39,5.35c-1.5,1.51 -3.31,2.68 -5.3,3.44c-1.99,0.75 -4.12,1.06 -6.24,0.91c-2.12,-0.15 -4.18,-0.75 -6.05,-1.77z" fill="#191919" id="svg_26"/>
   <path d="m426.14,74.36c-2.91,0 -5.78,-0.73 -8.34,-2.13l-81.03,-47.17c-0.55,-0.31 -0.97,-0.82 -1.18,-1.43c-0.21,-0.61 -0.19,-1.27 0.06,-1.87c0.24,-0.59 0.68,-1.07 1.25,-1.36c0.56,-0.29 1.22,-0.37 1.83,-0.21l7.62,1.88l83.51,17.57c2.45,0.53 4.76,1.58 6.77,3.08c2.01,1.51 3.68,3.43 4.89,5.64c1.21,2.21 1.93,4.65 2.11,7.16c0.19,2.52 -0.17,5.04 -1.04,7.4c-0.87,2.37 -2.23,4.51 -4,6.3c-1.77,1.79 -3.9,3.17 -6.24,4.06c-1.99,0.73 -4.1,1.1 -6.21,1.08zm-5.78,-6.77c1.53,0.81 3.22,1.3 4.96,1.41c1.73,0.12 3.47,-0.13 5.1,-0.74c1.62,-0.63 3.09,-1.59 4.31,-2.84c1.22,-1.24 2.15,-2.74 2.75,-4.38c0.61,-1.64 0.86,-3.41 0.73,-5.16c-0.13,-1.75 -0.63,-3.46 -1.47,-5c-0.85,-1.54 -2,-2.87 -3.4,-3.92c-1.4,-1.05 -3.01,-1.79 -4.71,-2.16l-74.36,-15.64l66.09,38.43z" fill="#191919" id="svg_27"/>
   <path d="m427.3,130.5l-89.24,-51.96l8.41,2.08l92.06,19.38c2.29,0.49 4.45,1.48 6.33,2.89c1.87,1.4 3.43,3.2 4.55,5.27c1.13,2.06 1.81,4.35 1.97,6.7c0.18,2.34 -0.15,4.7 -0.96,6.91c-0.82,2.21 -2.1,4.21 -3.75,5.88c-1.65,1.67 -3.64,2.96 -5.83,3.79c-2.2,0.82 -4.54,1.17 -6.87,1.01c-2.34,-0.17 -4.61,-0.83 -6.67,-1.95z" fill="#191919" id="svg_28"/>
   <path d="m435.08,135.22c-3.17,0.01 -6.28,-0.79 -9.06,-2.31l-89.25,-51.95c-0.55,-0.32 -0.97,-0.83 -1.18,-1.44c-0.21,-0.6 -0.19,-1.27 0.06,-1.86c0.24,-0.59 0.68,-1.08 1.25,-1.37c0.56,-0.29 1.22,-0.36 1.83,-0.21l8.4,2.06l91.99,19.36c2.66,0.58 5.17,1.73 7.35,3.36c2.19,1.64 4,3.73 5.31,6.13c1.31,2.4 2.09,5.05 2.28,7.78c0.2,2.73 -0.19,5.47 -1.14,8.04c-0.94,2.56 -2.42,4.9 -4.34,6.84c-1.92,1.94 -4.23,3.44 -6.78,4.4c-2.15,0.8 -4.43,1.19 -6.72,1.17zm-6.51,-6.97c1.72,0.94 3.63,1.49 5.58,1.63c1.95,0.13 3.91,-0.16 5.74,-0.85c1.84,-0.7 3.5,-1.78 4.89,-3.18c1.38,-1.39 2.45,-3.07 3.13,-4.92c0.69,-1.86 0.96,-3.83 0.82,-5.8c-0.14,-1.97 -0.7,-3.89 -1.64,-5.62c-0.95,-1.73 -2.25,-3.23 -3.82,-4.41c-1.58,-1.18 -3.38,-2 -5.3,-2.42l-83.53,-17.59l74.13,43.16z" fill="#191919" id="svg_29"/>
   <path d="m357.17,49.57l0,265.47l-156.03,0l20.95,-178.9l-72.99,0l-0.15,-115.26l179.85,0c7.54,0.04 14.76,3.08 20.08,8.46c5.31,5.37 8.3,12.65 8.29,20.23z" fill="white" id="svg_30"/>
   <path d="m357.17,317.7l-156.04,0l-2.62,-2.98l20.59,-175.92l-70,0l-2.64,-2.66l-0.16,-115.26l2.64,-2.66l179.86,0c8.26,0.01 16.18,3.31 22.02,9.19c5.84,5.87 9.13,13.84 9.14,22.14l0,265.47l-2.79,2.68zm-153.06,-5.32l150.42,0l0,-262.81c-0.02,-6.9 -2.74,-13.51 -7.59,-18.38c-4.85,-4.88 -11.43,-7.62 -18.28,-7.63l-177.18,0l0.16,109.94l70.53,0l2.63,2.98l-20.69,175.9z" fill="#191919" id="svg_31"/>
   <path d="m200.88,264.7l6.29,0l-6.29,50.22l-29.38,0l0,-20.68c0,-7.83 3.1,-15.35 8.6,-20.89c5.51,-5.54 12.99,-8.65 20.78,-8.65z" fill="white" id="svg_32"/>
   <path d="m200.87,317.58l-29.37,0l-2.65,-2.66l0,-20.68c0.01,-8.54 3.39,-16.72 9.39,-22.76c6.01,-6.04 14.14,-9.43 22.63,-9.44l6.3,0l2.61,2.98l-6.28,50.23l-2.63,2.33zm-26.73,-5.32l24.34,0l5.62,-44.9l-3.3,0c-7.08,0.01 -13.88,2.84 -18.89,7.88c-5.01,5.04 -7.83,11.87 -7.84,19l0.07,18.02z" fill="#191919" id="svg_33"/>
   <path d="m357.23,264.7c7.79,0 15.27,3.11 20.77,8.65c5.51,5.54 8.61,13.06 8.61,20.89l0,20.68l-29.38,0l0,-50.22z" fill="white" id="svg_34"/>
   <path d="m386.6,317.58l-29.43,0l-2.65,-2.66l0,-50.22l2.65,-2.66c8.49,0 16.63,3.4 22.64,9.44c6,6.03 9.37,14.22 9.38,22.76l0,20.68l-2.59,2.66zm-26.73,-5.32l24.08,0l0,-18.02c-0.01,-6.67 -2.47,-13.09 -6.92,-18.04c-4.45,-4.94 -10.57,-8.04 -17.16,-8.72l0,44.78z" fill="#191919" id="svg_35"/>
   <path d="m142.62,20.9l7.48,0c1.76,0 3.44,0.7 4.69,1.95c1.24,1.25 1.94,2.95 1.94,4.72l0,101.89c0,1.77 -0.7,3.46 -1.94,4.71c-1.25,1.25 -2.93,1.95 -4.69,1.95l-7.48,0c-14.36,0 -28.13,-5.75 -38.28,-15.96c-10.15,-10.22 -15.86,-24.07 -15.87,-38.51l0,-6.26c0,-14.45 5.71,-28.31 15.88,-38.53c10.15,-10.22 23.94,-15.96 38.31,-15.96l-0.04,0z" fill="#191919" id="svg_36"/>
   <path d="m150.09,138.8l-7.48,0c-15.06,-0.02 -29.51,-6.05 -40.16,-16.76c-10.66,-10.71 -16.65,-25.24 -16.67,-40.39l0,-6.26c0.02,-15.15 6.01,-29.68 16.67,-40.39c10.65,-10.72 25.1,-16.74 40.16,-16.76l7.48,0c2.46,0 4.82,0.98 6.56,2.73c1.74,1.75 2.73,4.12 2.73,6.59l0,101.89c0,2.48 -0.99,4.86 -2.73,6.61c-1.74,1.75 -4.1,2.74 -6.56,2.74zm-7.48,-115.26c-13.66,0.02 -26.76,5.49 -36.42,15.2c-9.67,9.72 -15.1,22.89 -15.12,36.63l0,6.26c0.02,13.74 5.45,26.91 15.12,36.63c9.66,9.72 22.76,15.18 36.42,15.2l7.48,0c1.06,0 2.08,-0.42 2.83,-1.18c0.75,-0.75 1.17,-1.78 1.17,-2.84l0,-101.79c-0.01,-1.06 -0.43,-2.08 -1.18,-2.83c-0.75,-0.75 -1.77,-1.17 -2.82,-1.17l-7.48,-0.11z" fill="#191919" id="svg_37"/>
   <path d="m181.95,99.8c1.88,0 3.42,-1.54 3.42,-3.44c0,-1.9 -1.54,-3.44 -3.42,-3.44c-1.89,0 -3.42,1.54 -3.42,3.44c0,1.9 1.53,3.44 3.42,3.44z" fill="#191919" id="svg_38"/>
   <path d="m181.93,102.45c-1.6,-0.01 -3.14,-0.65 -4.28,-1.8c-1.14,-1.14 -1.77,-2.69 -1.78,-4.31c0.01,-1.61 0.64,-3.16 1.78,-4.3c1.14,-1.15 2.68,-1.79 4.28,-1.79c1.61,0 3.15,0.64 4.29,1.79c1.14,1.14 1.78,2.69 1.78,4.3c0,1.62 -0.64,3.17 -1.78,4.32c-1.13,1.14 -2.68,1.79 -4.29,1.79zm0,-6.89c-0.1,0 -0.2,0.03 -0.29,0.07c-0.1,0.03 -0.18,0.09 -0.26,0.16c-0.07,0.08 -0.12,0.16 -0.16,0.26c-0.04,0.09 -0.06,0.19 -0.06,0.29c0,0.21 0.08,0.41 0.22,0.56c0.15,0.14 0.35,0.23 0.55,0.23c0.11,0 0.21,-0.02 0.31,-0.06c0.09,-0.04 0.18,-0.1 0.25,-0.17c0.07,-0.07 0.13,-0.16 0.17,-0.25c0.03,-0.1 0.05,-0.2 0.05,-0.31c0,-0.1 -0.02,-0.2 -0.06,-0.29c-0.04,-0.1 -0.09,-0.18 -0.17,-0.26c-0.07,-0.07 -0.16,-0.13 -0.25,-0.16c-0.09,-0.04 -0.19,-0.07 -0.3,-0.07z" fill="#191919" id="svg_39"/>
   <path d="m202.12,99.8c1.89,0 3.42,-1.54 3.42,-3.44c0,-1.9 -1.53,-3.44 -3.42,-3.44c-1.89,0 -3.42,1.54 -3.42,3.44c0,1.9 1.53,3.44 3.42,3.44z" fill="#191919" id="svg_40"/>
   <path d="m202.11,102.45c-1.61,0 -3.15,-0.65 -4.29,-1.79c-1.13,-1.15 -1.77,-2.7 -1.77,-4.32c0,-1.61 0.64,-3.16 1.78,-4.3c1.14,-1.15 2.67,-1.79 4.28,-1.79c1.61,0 3.15,0.64 4.29,1.79c1.13,1.14 1.78,2.69 1.78,4.3c0,1.62 -0.64,3.17 -1.78,4.32c-1.13,1.14 -2.68,1.79 -4.29,1.79zm0,-6.89c-0.1,0 -0.2,0.03 -0.3,0.07c-0.09,0.03 -0.17,0.09 -0.25,0.16c-0.06,0.08 -0.12,0.16 -0.16,0.26c-0.04,0.09 -0.06,0.19 -0.06,0.29c0,0.21 0.08,0.41 0.22,0.56c0.15,0.14 0.35,0.23 0.55,0.23c0.21,0 0.41,-0.09 0.55,-0.23c0.15,-0.15 0.23,-0.35 0.23,-0.56c0,-0.1 -0.02,-0.2 -0.06,-0.29c-0.04,-0.1 -0.09,-0.18 -0.17,-0.26c-0.07,-0.07 -0.16,-0.13 -0.25,-0.16c-0.09,-0.04 -0.19,-0.07 -0.3,-0.07z" fill="#191919" id="svg_41"/>
   <path d="m190.32,116.67c1.89,0 3.42,-1.54 3.42,-3.44c0,-1.9 -1.53,-3.44 -3.42,-3.44c-1.89,0 -3.42,1.54 -3.42,3.44c0,1.9 1.53,3.44 3.42,3.44z" fill="#191919" id="svg_42"/>
   <path d="m190.31,119.33c-1.61,-0.01 -3.15,-0.65 -4.28,-1.79c-1.14,-1.15 -1.78,-2.7 -1.78,-4.31c0,-1.62 0.63,-3.17 1.77,-4.32c1.14,-1.15 2.68,-1.79 4.29,-1.8c1.61,0.01 3.16,0.65 4.3,1.8c1.14,1.14 1.78,2.7 1.78,4.32c0,1.62 -0.64,3.17 -1.78,4.31c-1.15,1.15 -2.69,1.79 -4.3,1.79zm0,-6.9c-0.21,0 -0.4,0.09 -0.55,0.24c-0.14,0.15 -0.22,0.35 -0.22,0.56c0,0.2 0.08,0.4 0.22,0.55c0.15,0.15 0.35,0.23 0.55,0.23c0.21,0 0.41,-0.08 0.56,-0.23c0.14,-0.15 0.23,-0.34 0.23,-0.55c0,-0.21 -0.08,-0.42 -0.23,-0.57c-0.14,-0.15 -0.35,-0.23 -0.56,-0.23z" fill="#191919" id="svg_43"/>
   <path d="m210.52,116.67c1.89,0 3.42,-1.54 3.42,-3.44c0,-1.9 -1.53,-3.44 -3.42,-3.44c-1.89,0 -3.42,1.54 -3.42,3.44c0,1.9 1.53,3.44 3.42,3.44z" fill="#191919" id="svg_44"/>
   <path d="m210.49,119.33c-1.61,-0.01 -3.14,-0.65 -4.28,-1.79c-1.14,-1.15 -1.78,-2.7 -1.79,-4.31c0,-1.62 0.64,-3.17 1.78,-4.32c1.14,-1.15 2.68,-1.79 4.29,-1.8c1.61,0.01 3.15,0.65 4.29,1.8c1.14,1.15 1.78,2.7 1.78,4.32c-0.01,1.61 -0.65,3.16 -1.78,4.31c-1.14,1.14 -2.68,1.78 -4.29,1.79zm0,-6.9c-0.2,0 -0.4,0.09 -0.55,0.24c-0.14,0.15 -0.23,0.35 -0.23,0.56c0,0.2 0.09,0.4 0.23,0.55c0.15,0.15 0.35,0.23 0.55,0.23c0.11,0 0.2,-0.02 0.3,-0.06c0.09,-0.04 0.18,-0.1 0.25,-0.17c0.07,-0.07 0.13,-0.16 0.17,-0.25c0.04,-0.1 0.06,-0.2 0.06,-0.3c0,-0.11 -0.02,-0.21 -0.06,-0.31c-0.04,-0.09 -0.09,-0.18 -0.16,-0.26c-0.08,-0.07 -0.16,-0.13 -0.26,-0.17c-0.1,-0.04 -0.19,-0.06 -0.3,-0.06z" fill="#191919" id="svg_45"/>
   <path d="m289.45,126.31c0,2.61 -1.02,5.11 -2.85,6.95c-1.84,1.84 -4.32,2.88 -6.91,2.88l-57.56,0" fill="white" id="svg_46"/>
   <path d="m279.69,138.8l-57.56,0c-0.7,0 -1.37,-0.28 -1.87,-0.78c-0.5,-0.5 -0.77,-1.17 -0.77,-1.88c0,-0.71 0.27,-1.38 0.77,-1.88c0.5,-0.5 1.17,-0.78 1.87,-0.78l57.56,0c1.86,-0.02 3.64,-0.78 4.96,-2.1c1.32,-1.33 2.07,-3.12 2.09,-4.99c0,-0.71 0.28,-1.39 0.77,-1.88c0.5,-0.5 1.17,-0.78 1.87,-0.78c0.7,0 1.38,0.28 1.87,0.78c0.5,0.49 0.78,1.17 0.78,1.88c-0.03,3.28 -1.33,6.42 -3.64,8.75c-2.31,2.32 -5.44,3.64 -8.7,3.66z" fill="#191919" id="svg_47"/>
   <path d="m281.85,214.71c11.75,0 21.28,-9.58 21.28,-21.4c0,-11.82 -9.53,-21.4 -21.28,-21.4c-11.75,0 -21.28,9.58 -21.28,21.4c0,11.82 9.53,21.4 21.28,21.4z" fill="white" id="svg_48"/>
   <path d="m281.85,217.38c-6.35,0 -12.43,-2.54 -16.91,-7.05c-4.49,-4.51 -7.01,-10.63 -7.02,-17.01c0.01,-6.38 2.53,-12.49 7.02,-17c4.49,-4.5 10.57,-7.04 16.91,-7.04c6.34,0 12.42,2.54 16.91,7.04c4.49,4.51 7.01,10.62 7.02,17c-0.01,6.38 -2.53,12.5 -7.02,17.01c-4.48,4.51 -10.56,7.05 -16.91,7.05zm0,-42.78c-4.94,0 -9.68,1.97 -13.17,5.49c-3.49,3.51 -5.46,8.27 -5.47,13.23c0.01,4.97 1.97,9.74 5.47,13.25c3.49,3.51 8.23,5.49 13.17,5.49c4.94,0 9.68,-1.98 13.17,-5.49c3.5,-3.51 5.46,-8.28 5.47,-13.25c0,-4.97 -1.97,-9.74 -5.46,-13.26c-3.5,-3.51 -8.23,-5.49 -13.18,-5.5l0,0.04z" fill="#191919" id="svg_49"/>
   <path d="m281.85,174.57c-0.7,0 -1.38,-0.28 -1.87,-0.78c-0.49,-0.5 -0.77,-1.18 -0.77,-1.88l0,-14.19c0,-0.71 0.28,-1.38 0.77,-1.88c0.49,-0.5 1.17,-0.78 1.87,-0.78c0.7,0 1.38,0.28 1.87,0.78c0.49,0.5 0.78,1.17 0.78,1.88l0,14.19c0,0.7 -0.29,1.38 -0.78,1.88c-0.49,0.5 -1.17,0.78 -1.87,0.78z" fill="#191919" id="svg_50"/>
   <path d="m357.17,160.45l-137.54,0c-0.7,0 -1.37,-0.28 -1.87,-0.78c-0.49,-0.5 -0.77,-1.18 -0.77,-1.88c0,-0.71 0.29,-1.38 0.78,-1.88c0.49,-0.49 1.16,-0.78 1.86,-0.78l137.54,0c0.7,0 1.37,0.28 1.87,0.78c0.5,0.5 0.78,1.17 0.78,1.88c0,0.7 -0.28,1.38 -0.78,1.88c-0.5,0.5 -1.17,0.78 -1.87,0.78z" fill="#191919" id="svg_51"/>
   <path d="m278.59,58.7c0,16.32 -9.31,29.54 -20.81,29.54c-11.49,0 -20.78,-13.22 -20.78,-29.54" fill="white" id="svg_52"/>
   <path d="m257.79,90.9c-12.93,0 -23.44,-14.45 -23.44,-32.22c0,-0.7 0.28,-1.38 0.78,-1.88c0.49,-0.5 1.17,-0.78 1.87,-0.78c0.7,0 1.37,0.28 1.87,0.78c0.49,0.5 0.77,1.18 0.77,1.88c0,14.85 8.15,26.9 18.15,26.9c9.99,0 18.16,-12.05 18.16,-26.9c0,-0.7 0.28,-1.38 0.78,-1.88c0.49,-0.5 1.16,-0.78 1.87,-0.78c0.69,0 1.37,0.28 1.87,0.78c0.49,0.5 0.77,1.18 0.77,1.88c0,17.77 -10.47,32.22 -23.45,32.22z" fill="#191919" id="svg_53"/>
   <path d="m319.68,58.7c0,16.32 -9.32,29.54 -20.79,29.54c-11.48,0 -20.81,-13.22 -20.81,-29.54" fill="white" id="svg_54"/>
   <path d="m298.99,90.9c-12.94,0 -23.45,-14.45 -23.45,-32.22c0,-0.7 0.27,-1.38 0.77,-1.88c0.5,-0.5 1.17,-0.78 1.87,-0.78c0.7,0 1.37,0.28 1.87,0.78c0.5,0.5 0.78,1.18 0.78,1.88c0,14.85 8.14,26.9 18.16,26.9c10.01,0 18.14,-12.05 18.14,-26.9c0,-0.7 0.28,-1.38 0.78,-1.88c0.49,-0.5 1.17,-0.78 1.87,-0.78c0.7,0 1.37,0.28 1.87,0.78c0.49,0.5 0.77,1.18 0.77,1.88c-0.09,17.77 -10.6,32.22 -23.43,32.22z" fill="#191919" id="svg_55"/>
   <path d="m228.25,258.62l0,54.31l38.62,0l0,-35.04c0,-4 1.58,-7.83 4.39,-10.65c2.82,-2.83 6.62,-4.42 10.6,-4.42c3.97,0 7.78,1.6 10.59,4.42c2.8,2.82 4.38,6.66 4.38,10.65l0,35.04l38.63,0l0,-54.31" fill="white" id="svg_56"/>
   <path d="m335.46,315.59l-38.64,0l-2.64,-2.66l0,-35.04c0,-3.29 -1.3,-6.45 -3.62,-8.78c-2.31,-2.33 -5.45,-3.63 -8.73,-3.63c-3.27,0 -6.41,1.3 -8.72,3.63c-2.32,2.33 -3.62,5.49 -3.62,8.78l0,35.04l-2.64,2.66l-38.62,0l-2.64,-2.66l0,-54.31c0,-0.71 0.28,-1.39 0.77,-1.89c0.5,-0.49 1.17,-0.78 1.87,-0.78c0.7,0 1.38,0.29 1.87,0.78c0.5,0.5 0.78,1.18 0.78,1.89l0,51.65l33.32,0l0,-32.38c0,-4.7 1.86,-9.21 5.17,-12.54c3.31,-3.32 7.79,-5.19 12.46,-5.19c4.68,0 9.17,1.87 12.47,5.19c3.31,3.33 5.17,7.84 5.17,12.54l0,32.38l33.34,0l0,-51.65c0,-0.71 0.28,-1.39 0.78,-1.89c0.5,-0.49 1.17,-0.78 1.87,-0.78c0.7,0 1.37,0.29 1.87,0.78c0.5,0.5 0.77,1.18 0.77,1.89l0,54.31l-2.64,2.66z" fill="#191919" id="svg_57"/>
   <path d="m137.63,300.38l-0.44,1.25l-0.51,1.25l-0.88,1l-0.73,1.11l-0.84,1l-0.93,0.93l-1.05,0.83l-0.84,1.03l-1.06,0.78l-1.09,0.74l-1.1,0.73l-1.04,0.83l-1.23,0.48l-1.22,0.52l-1.25,0.42l-1.27,0.38l-1.27,0.37l-1.36,0.07l-1.3,0.43l-1.36,-0.04l-1.36,-0.09l-1.36,0.11l-1.35,0.03l-1.29,-0.58l-1.37,0.07l-1.33,-0.39l-1.18,-0.7l-1.29,-0.4l-1.3,-0.39l-1.27,-0.53l-1.04,-0.91l-1.18,-0.69l-1.06,-0.85l-1.13,-0.78l-1.06,-0.89l-0.84,-1.08l-0.82,-1.1l-0.77,-1.12l-0.85,-1.06l-0.76,-1.15l-0.47,-1.3l-0.69,-1.17l-0.35,-1.27l-0.58,-1.19l-0.37,-1.26l-0.27,-1.28l-0.12,-1.31l-0.16,-1.29l-0.26,-1.32l0.22,-1.31l0.06,-1.29l0,-1.33l0.35,-1.28l0.21,-1.27l0.42,-1.25l0.16,-1.33l0.55,-1.2l0.41,-1.26l0.82,-1.05l0.53,-1.21l0.78,-1.06l0.63,-1.15l0.9,-0.98l0.94,-0.92l0.9,-0.96l0.91,-0.94l1.11,-0.71l1.12,-0.67l0.97,-0.92l1.12,-0.68l1.19,-0.56l1.28,-0.3l1.15,-0.71l1.27,-0.29l1.37,-0.16l1.33,-0.21l1.32,-0.48l1.36,0.04l1.37,-0.23l1.36,0.19l1.36,0l1.34,0.3l1.3,0.46l1.36,0.16l1.27,0.5l1.22,0.6l1.3,0.41l1.29,0.46l1.04,0.92l1.18,0.66l1.17,0.71l0.84,1.1l1.24,0.66l0.81,1.1l0.97,0.97l0.7,1.17l0.72,1.14l0.92,1.02l0.5,1.28l0.63,1.17l0.44,1.26l0.3,1.29l0.62,1.19l0.3,1.3l0.19,1.32l-0.05,1.34l0.09,1.31l0.17,1.33l-0.33,1.31l0.12,1.33l-0.16,1.31l-0.35,1.3l-0.34,1.27l-0.4,1.26l-0.5,1.22l-0.72,1.13z" fill="white" id="svg_59"/>
   <path d="m112.83,317.18l-1.11,-0.23l-0.72,-0.32l-0.78,0l-0.83,0l-1.92,-0.64l-0.93,-0.56l-2.51,-0.78l-1.27,-0.53l-0.72,-0.45l-0.86,-0.74l-1.27,-0.79l-3.67,-2.94l-3.53,-4.56l-1.02,-1.76l-0.39,-1.09l-0.84,-1.59l-0.28,-1.03l-0.64,-1.39l-0.42,-1.48l-0.3,-1.55l-0.27,-2.46l-0.24,-1.19l0,-1.01l0.21,-1.14l0,-1.11l0,-1.19l0.1,-0.75l0.32,-1.11l0.3,-1.6l0.33,-0.96l0.13,-1.04l0.21,-0.8l0.49,-1.07l0.36,-1.09l0.44,-0.84l0.61,-0.79l0.67,-1.37l0.69,-0.94l0.95,-1.56l4.15,-4.2l2.03,-1.28l1.21,-1.06l1.36,-0.8l1.76,-0.77l0.85,-0.19l0.74,-0.46l0.85,-0.35l1.53,-0.32l2.36,-0.34l1.08,-0.37l0.95,-0.16l1.13,0l1.11,-0.18l0.81,0l1.17,0.18l1.76,0l1.64,0.37l1.01,0.35l1.07,0.12l0.67,0.18l1.46,0.59l1.03,0.51l2.5,0.84l0.88,0.53l0.81,0.72l2.17,1.25l0.74,0.67l0.5,0.66l0.72,0.37l0.88,0.76l0.71,0.96l1.21,1.31l1.29,2.09l0.77,0.87l0.5,0.8l0.42,1.12l0.73,1.42l0.53,1.54l0.22,0.98l0.67,1.49l0.37,1.54l0.22,1.77l0,1.19l0.22,2.36l0,0.97l-0.21,0.87l0,0.91l0,0.53l-0.24,1.77l-1.18,4.11l-0.73,1.65l-0.55,0.85l-0.91,2.36l-0.46,0.73l-0.76,0.87l-0.81,1.19l-1,1.2l-1.15,1.1l-0.81,0.66l-1.17,1.27l-4.88,3.41l-3.81,1.47l-3.22,0.87l-1.03,0l-0.99,0.34l-0.89,0.12l-2.6,-0.12l-1.35,0.1l-1.33,0.16zm-1.43,-5.88l1.19,0.23l0.74,0.33l0.7,0l1.66,-0.1l2.15,0.1l1.53,-0.4l1.06,0l3.3,-1.02l2.06,-0.84l0.92,-0.73l2.89,-1.99l1.01,-1.13l0.93,-0.75l0.76,-0.75l0.65,-0.79l0.88,-1.28l0.59,-0.67l1,-2.5l0.58,-0.92l0.37,-0.91l0.97,-3.42l0.11,-0.83l-0.09,-1.09l0,-0.87l0.19,-0.81l-0.21,-2.59l0,-1.1l-0.33,-1.77l-0.71,-1.56l-0.24,-1.14l-0.32,-0.9l-0.69,-1.28l-0.32,-0.85l-0.84,-0.99l-1.31,-2.1l-0.98,-1.02l-0.46,-0.63l-0.73,-0.39l-0.86,-0.72l-0.53,-0.69l-2.31,-1.4l-0.65,-0.59l-2.4,-0.8l-1.96,-0.9l-1.58,-0.25l-1.15,-0.41l-0.9,-0.19l-1.46,0l-0.96,-0.12l-1.44,0.17l-0.88,0l-1.34,0.44l-3.37,0.54l-0.74,0.46l-0.83,0.33l-1.01,0.23l-1.58,0.86l-1.2,1.04l-1.92,1.21l-3.16,3.28l-0.65,1.15l-0.62,0.83l-0.76,1.51l-0.53,0.67l-0.37,1.12l-0.37,0.82l-0.24,1.47l-0.36,1.01l-0.23,1.36l-0.24,0.91l0,0.94l0,1.77l-0.14,0.82l0.19,1.03l0.26,2.5l0.5,1.99l0.65,1.43l0.27,0.94l0.72,1.31l0.37,1.01l0.49,0.78l0.9,1.12l2.17,2.94l0.74,0.64l3.53,2.43l0.74,0.62l0.74,0.32l3.05,1.01l0.9,0.53l0.56,0.16l0.95,-0.17z" fill="#191919" id="svg_60"/>
   <path d="m108.47,286.35l-0.58,1.17l-0.58,1.17l-0.71,1.1l-0.76,1.06l-0.74,1.1l-0.97,0.89l-0.89,0.94l-0.91,0.98l-1.09,0.72l-1.11,0.71l-1.11,0.66l-1.04,0.83l-1.23,0.46l-1.15,0.66l-1.23,0.44l-1.33,0.36l-0.31,-1.34l-0.48,-1.22l-0.55,-1.22l-0.17,-1.3l-0.2,-1.31l-0.03,-1.31l-0.13,-1.29l0.06,-1.32l-0.11,-1.31l0.05,-1.31l0.23,-1.31l0.39,-1.26l0.21,-1.31l0.5,-1.21l0.38,-1.27l0.75,-1.11l0.47,-1.22l0.65,-1.13l0.62,-1.17l0.92,-0.94l0.76,-1.09l0.91,-0.93l0.87,-1l1.04,-0.8l0.93,-0.92l1.08,-0.76l1.11,-0.69l1.2,-0.53l1.11,-0.71l1.28,-0.31l1.22,-0.48l1.22,-0.47l0.54,1.2l0.36,1.26l0.32,1.28l0.24,1.28l0.35,1.27l-0.03,1.33l0.16,1.29l0.07,1.32l-0.16,1.31l-0.02,1.31l-0.21,1.3l-0.35,1.26l-0.37,1.26l-0.27,1.29l-0.44,1.24l-0.74,1.1z" fill="white" id="svg_61"/>
   <path d="m93.75,302.16l-3.27,-1.93l-0.3,-1.17l-1.09,-2.85l-0.4,-2.93l0,-1.21l-0.13,-1.57l0,-1.16l-0.09,-1.48l0.09,-1.67l0.32,-1.62l0.32,-1.08l0.35,-1.77l0.46,-1.08l0.33,-1.14l0.34,-0.71l0.56,-0.87l0.57,-1.32l1.65,-2.83l0.78,-0.79l0.92,-1.23l2.04,-2.18l0.92,-0.71l1.14,-1.08l2.63,-1.77l1.03,-0.46l0.96,-0.61l0.82,-0.35l1.09,-0.25l2.26,-0.88l3.37,1.36l0.68,1.62l0.69,2.57l0.27,1.32l0.31,1.18l0.11,0.8l0,1.11l0.15,1.3l0,1.31l0,0.48l-0.15,1.15l0,1.56l-0.28,1.58l-0.71,2.45l-0.34,1.56l-0.72,1.77l-0.65,0.96l-1.23,2.46l-2.24,3.28l-0.43,0.5l-0.9,0.81l-2.18,2.24l-3.28,2.07l-0.9,0.71l-0.69,0.39l-1.04,0.41l-1.39,0.75l-1.41,0.49l-1.34,0.51zm0.51,-7.09l0.49,1.14l1.04,-0.55l0.86,-0.34l1.01,-0.76l2.95,-1.77l1.76,-1.78l0.74,-0.65l1.92,-2.84l1.25,-2.49l0.57,-0.85l0.26,-0.74l0.28,-1.33l0.67,-2.34l0.16,-0.96l0,-1.42l0.13,-1.06l0,-0.97l-0.16,-1.62l0,-0.92l-0.3,-1.08l-0.44,-2.08l-1.11,0.28l-1.06,0.64l-1.04,0.47l-1.77,1.17l-1.02,0.95l-0.83,0.64l-1.57,1.77l-0.9,1.23l-0.65,0.69l-1.04,1.77l-0.67,1.54l-0.51,0.79l-0.37,1.13l-0.37,0.92l-0.25,1.37l-0.33,1.1l-0.18,0.97l0,0.98l0.09,1.47l0,1.12l0.12,1.31l0,1.17l0.27,1.93z" fill="#191919" id="svg_62"/>
   <path d="m137.69,300.41l-0.49,1.22l-0.72,1.1l-0.68,1.13l-0.77,1.09l-0.88,0.95l-0.78,1.1l-1.02,0.84l-0.88,0.99l-1.11,0.73l-1.06,0.8l-1.06,0.79l-1.22,0.52l-1.18,0.56l-1.2,0.55l-1.27,0.32l-1.18,0.64l-1.36,0.27l-0.47,-1.3l-0.44,-1.24l-0.44,-1.24l-0.32,-1.28l-0.32,-1.27l-0.42,-1.28l-0.19,-1.31l0.12,-1.33l-0.18,-1.33l0.18,-1.31l0,-1.33l0.42,-1.28l0.02,-1.35l0.47,-1.24l0.36,-1.28l0.62,-1.17l0.49,-1.24l0.56,-1.19l0.53,-1.22l0.83,-1.03l0.67,-1.15l0.9,-0.97l0.85,-1.03l1.11,-0.75l0.89,-0.97l1.03,-0.82l1.09,-0.73l1.15,-0.64l1.09,-0.74l1.24,-0.48l1.18,-0.57l1.2,-0.55l1.3,-0.21l1.23,-0.41l0.66,1.16l0.4,1.26l0.53,1.22l0.22,1.31l0.36,1.26l0.2,1.31l0.11,1.31l0.05,1.33l0.03,1.32l-0.12,1.31l0.07,1.33l-0.28,1.3l-0.39,1.25l-0.25,1.3l-0.28,1.29l-0.47,1.24l-0.73,1.14z" fill="white" id="svg_63"/>
   <path d="m121.34,316.69l-3,-1.77l-1.43,-4.05l-0.63,-2.45l-0.5,-1.63l-0.21,-1.93l0,-1.05l-0.12,-1.02l0,-0.73l0.16,-1.14l0,-1.15l0.14,-0.81l0.28,-0.89l0,-0.89l0.18,-0.92l0.42,-1.12l0.53,-1.77l0.56,-1.03l0.5,-1.25l1.43,-2.95l0.7,-0.87l0.9,-1.42l2.22,-2.43l0.85,-0.56l0.99,-1.03l1.21,-0.94l1.27,-0.84l1.04,-0.6l1.54,-0.94l1.13,-0.44l2.34,-1.1l0.69,-0.2l1.07,-0.17l1.03,-0.36l3.15,1.24l0.85,1.6l0.37,1.15l0.65,1.77l0.2,1.16l0.4,1.43l0.23,1.53l0.19,4.08l-0.12,1.45l0,1.12l0,0.73l-0.34,1.5l-0.33,1.14l-0.65,2.89l-0.71,1.77l-0.58,0.92l-0.65,1.48l-2.43,3.63l-0.78,0.85l-0.65,0.94l-0.5,0.53l-0.88,0.71l-1.23,1.26l-3.65,2.57l-3.99,1.77l-0.97,0.25l-0.9,0.48l-0.72,0.27l-1.25,0.23zm0.67,-7.09l0.42,1.19l0.27,-0.13l1.05,-0.27l3.14,-1.41l2.82,-2.04l0.96,-1.02l0.74,-0.61l0.77,-1.07l0.8,-0.85l0.59,-0.83l1.26,-2.04l0.61,-1.4l0.59,-0.91l0.3,-0.79l0.54,-2.61l0.55,-1.99l0,-0.97l0,-0.43l0.12,-1.13l-0.17,-3.55l-0.16,-1.05l-0.4,-1.43l-0.17,-1l-0.49,-1.22l-0.3,0l-3.14,1.38l-1.04,0.7l-1.97,1.2l-0.8,0.64l-1.21,1.2l-0.8,0.54l-1.37,1.59l-0.78,1.24l-0.6,0.75l-1.53,3.55l-0.5,0.88l-0.33,1.24l-0.32,0.82l0,0.87l-0.14,0.8l-0.28,0.87l0,1.27l-0.12,0.96l0.14,1.52l0,1.03l0.1,0.78l0.41,1.23l0.44,2.5z" fill="#191919" id="svg_64"/>
  </g>
 </g>
</svg>